<svg width="1422" height="712" viewBox="0 0 1422 712" fill="none" xmlns="http://www.w3.org/2000/svg">
<path opacity="0.02" fill-rule="evenodd" clip-rule="evenodd" d="M1 0H0V712H1V0ZM50 0H49V712H50V0ZM98 0H99V712H98V0ZM148 0H147V712H148V0ZM196 0H197V712H196V0ZM246 0H245V712H246V0ZM294 0H295V712H294V0ZM344 0H343V712H344V0ZM392 0H393V712H392V0ZM442 0H441V712H442V0ZM490 0H491V712H490V0ZM540 0H539V712H540V0ZM588 0H589V712H588V0ZM638 0H637V712H638V0ZM686 0H687V712H686V0ZM736 0H735V712H736V0ZM784 0H785V712H784V0ZM834 0H833V712H834V0ZM882 0H883V712H882V0ZM932 0H931V712H932V0ZM980 0H981V712H980V0ZM1030 0H1029V712H1030V0ZM1078 0H1079V712H1078V0ZM1128 0H1127V712H1128V0ZM1176 0H1177V712H1176V0ZM1226 0H1225V712H1226V0ZM1274 0H1275V712H1274V0ZM1324 0H1323V712H1324V0ZM1372 0H1373V712H1372V0ZM1422 0H1421V712H1422V0Z" fill="white"/>
</svg>
