<svg width="30" height="30" viewBox="0 0 30 30" fill="none" xmlns="http://www.w3.org/2000/svg">
<path d="M19 12.375C19 11.0633 20.0633 10 21.375 10C22.6867 10 23.75 11.0633 23.75 12.375C23.75 12.417 23.7489 12.4586 23.7468 12.5H19.0032C19.0011 12.4586 19 12.417 19 12.375Z" stroke="#0B8149" stroke-width="2"/>
<path fill-rule="evenodd" clip-rule="evenodd" d="M27.9176 11.7332L25.6741 4.25501C25.3143 3.05567 24.2313 2.25 22.9798 2.25H22.5H20.625H9.37501H7.50003H7.02029C5.76875 2.25 4.68566 3.05567 4.32592 4.25501L2.08235 11.7332C0.886689 12.0571 0 13.1406 0 14.4375V22.875C0 23.9086 0.84135 24.75 1.87498 24.75V25.6875C1.87498 27.2384 3.13657 28.5 4.68748 28.5H6.56246C8.11337 28.5 9.37495 27.2384 9.37495 25.6875V24.75H20.6249V25.6875C20.6249 27.2384 21.8865 28.5 23.4374 28.5H25.3124C26.8633 28.5 28.1249 27.2384 28.1249 25.6875V24.75C29.1585 24.75 29.9999 23.9086 29.9999 22.875V14.4375C30 13.1406 29.1133 12.0571 27.9176 11.7332ZM7.02024 4.12498C6.6028 4.12498 6.24206 4.39323 6.12213 4.79332L4.0726 11.625H25.9273L23.8778 4.79332C23.7579 4.39323 23.3972 4.12498 22.9797 4.12498H7.02024ZM6.56251 26.6251C7.07979 26.6251 7.50003 26.2049 7.50003 25.6876V24.7501H3.75001V25.6876C3.75001 26.2049 4.17025 26.6251 4.68753 26.6251H6.56251ZM25.3125 26.6251C25.8298 26.6251 26.25 26.2049 26.25 25.6876V24.7501H22.5V25.6876C22.5 26.2049 22.9202 26.6251 23.4375 26.6251H25.3125ZM1.87498 14.4376V22.8751L28.125 22.875V14.4376C28.125 13.9203 27.7048 13.5 27.1875 13.5H2.8125C2.29522 13.5 1.87498 13.9203 1.87498 14.4376Z" fill="#0B8149"/>
<path d="M6.6723 15.8689C5.12139 15.8689 3.8598 17.1305 3.8598 18.6814C3.8598 20.2323 5.12139 21.4939 6.6723 21.4939C8.22321 21.4939 9.4848 20.2323 9.4848 18.6814C9.4848 17.1305 8.22321 15.8689 6.6723 15.8689ZM6.6723 19.6189C6.15502 19.6189 5.73478 19.1987 5.73478 18.6814C5.73478 18.1641 6.15502 17.7439 6.6723 17.7439C7.18958 17.7439 7.60982 18.1641 7.60982 18.6814C7.60982 19.1987 7.18958 19.6189 6.6723 19.6189Z" fill="#0B8149"/>
<path d="M24.0413 15.8689C22.4903 15.8689 21.2288 17.1305 21.2288 18.6814C21.2288 20.2323 22.4903 21.4939 24.0413 21.4939C25.5922 21.4939 26.8538 20.2323 26.8538 18.6814C26.8538 17.1305 25.5922 15.8689 24.0413 15.8689ZM24.0413 19.6189C23.524 19.6189 23.1037 19.1987 23.1037 18.6814C23.1037 18.1641 23.524 17.7439 24.0413 17.7439C24.5585 17.7439 24.9788 18.1641 24.9788 18.6814C24.9788 19.1987 24.5585 19.6189 24.0413 19.6189Z" fill="#0B8149"/>
</svg>
