<svg width="40" height="40" viewBox="0 0 40 40" fill="none" xmlns="http://www.w3.org/2000/svg">
<path fill-rule="evenodd" clip-rule="evenodd" d="M8.67438 10.2705L7.56757 10.2441V11.3513V29.1891V30.1957L8.57162 30.2674L31.2743 31.8891L32.4324 31.9718V30.8107V11.8918V10.8362L31.3771 10.8111L8.67438 10.2705ZM8.64865 12.4327V11.3513L9.72973 11.377L31.3513 11.8918V29.7269V30.8107L30.2703 30.7335L8.64865 29.1891V12.4327ZM19.1864 12.7026H19.1892H19.1919C19.3412 12.7027 19.4621 12.8238 19.4621 12.973C19.462 13.1223 19.341 13.2432 19.1917 13.2432H19.1892H19.1867C19.0374 13.2432 18.9164 13.1223 18.9163 12.973C18.9162 12.8238 19.0372 12.7027 19.1864 12.7026ZM18.4196 13.0169C18.4458 13.1639 18.3479 13.3043 18.201 13.3305L18.1961 13.3313C18.0491 13.3577 17.9087 13.26 17.8823 13.113C17.856 12.9661 17.9537 12.8257 18.1006 12.7993L18.106 12.7984C18.253 12.7721 18.3933 12.87 18.4196 13.0169ZM19.9588 13.0169C19.985 12.87 20.1254 12.7721 20.2724 12.7984L20.2777 12.7993C20.4246 12.8257 20.5224 12.9661 20.4961 13.113C20.4697 13.26 20.3292 13.3577 20.1823 13.3313L20.1774 13.3305C20.0305 13.3043 19.9326 13.1639 19.9588 13.0169ZM17.4012 13.2439C17.4526 13.384 17.3808 13.5393 17.2406 13.5908L17.236 13.5925C17.0959 13.6441 16.9405 13.5724 16.889 13.4322C16.8374 13.2922 16.9091 13.1368 17.0492 13.0853L17.0543 13.0834C17.1944 13.0319 17.3497 13.1038 17.4012 13.2439ZM20.9772 13.2439C21.0286 13.1038 21.1839 13.0319 21.3241 13.0834L21.3292 13.0853C21.4692 13.1368 21.541 13.2922 21.4894 13.4322C21.4378 13.5724 21.2825 13.6441 21.1424 13.5925L21.1377 13.5908C20.9976 13.5393 20.9257 13.384 20.9772 13.2439ZM16.4375 13.6437C16.5117 13.7732 16.4668 13.9384 16.3372 14.0125L16.3329 14.015C16.2035 14.0893 16.0383 14.0445 15.964 13.915C15.8898 13.7855 15.9345 13.6204 16.064 13.5461L16.0687 13.5434C16.1982 13.4693 16.3633 13.5141 16.4375 13.6437ZM21.9409 13.6437C22.015 13.5141 22.1802 13.4693 22.3097 13.5434L22.3144 13.5461C22.4438 13.6204 22.4886 13.7855 22.4144 13.915C22.3401 14.0445 22.1749 14.0893 22.0455 14.015L22.0411 14.0125C21.9116 13.9384 21.8667 13.7732 21.9409 13.6437ZM15.553 14.1968C15.6465 14.3132 15.6281 14.4833 15.5118 14.5768L15.5079 14.58C15.3917 14.6737 15.2216 14.6554 15.1279 14.5392C15.0343 14.423 15.0525 14.2528 15.1688 14.1591L15.173 14.1558C15.2892 14.0621 15.4593 14.0806 15.553 14.1968ZM22.8255 14.1968C22.919 14.0806 23.0891 14.0621 23.2055 14.1558L23.2096 14.1591C23.3258 14.2528 23.3441 14.423 23.2505 14.5392C23.1568 14.6554 22.9866 14.6737 22.8704 14.58L22.8665 14.5768C22.7503 14.4833 22.7318 14.3132 22.8255 14.1968ZM14.7644 14.8801C14.8741 14.9814 14.8808 15.1524 14.7795 15.262L14.7761 15.2657C14.6749 15.3754 14.5039 15.3822 14.3942 15.281C14.2845 15.1798 14.2776 15.0088 14.3789 14.8991L14.3825 14.8952C14.4838 14.7855 14.6548 14.7788 14.7644 14.8801ZM23.6139 14.8801C23.7236 14.7788 23.8946 14.7855 23.9959 14.8952L23.9996 14.8991C24.1008 15.0088 24.0939 15.1798 23.9842 15.281C23.8745 15.3822 23.7035 15.3754 23.6023 15.2657L23.5989 15.262C23.4976 15.1524 23.5043 14.9814 23.6139 14.8801ZM14.0828 15.67C14.2052 15.7553 14.2355 15.9237 14.1502 16.0462L14.1474 16.0504C14.0622 16.173 13.8938 16.2033 13.7712 16.1181C13.6486 16.033 13.6183 15.8645 13.7035 15.742L13.7065 15.7375C13.7918 15.615 13.9602 15.5848 14.0828 15.67ZM24.2956 15.67C24.4182 15.5848 24.5866 15.615 24.6718 15.7375L24.6749 15.742C24.7601 15.8645 24.7297 16.033 24.6072 16.1181C24.4846 16.2033 24.3162 16.173 24.231 16.0504L24.2282 16.0462C24.1429 15.9237 24.1731 15.7553 24.2956 15.67ZM13.5145 16.5453C13.6471 16.6139 13.699 16.777 13.6305 16.9095L13.6282 16.914C13.5597 17.0466 13.3967 17.0986 13.2641 17.0301C13.1314 16.9617 13.0794 16.7987 13.1479 16.666L13.1503 16.6613C13.2189 16.5287 13.3819 16.4768 13.5145 16.5453ZM24.8638 16.5453C24.9964 16.4768 25.1595 16.5287 25.2281 16.6613L25.2305 16.666C25.299 16.7987 25.247 16.9617 25.1143 17.0301C24.9817 17.0986 24.8186 17.0466 24.7502 16.914L24.7479 16.9095C24.6793 16.777 24.7312 16.6139 24.8638 16.5453ZM25.3145 17.4865C25.4546 17.435 25.6099 17.5069 25.6615 17.647L25.6633 17.652C25.7147 17.7922 25.6428 17.9474 25.5026 17.9988C25.3625 18.0502 25.2072 17.9783 25.1558 17.8381L25.154 17.8334C25.1026 17.6933 25.1744 17.538 25.3145 17.4865ZM13.0638 17.4865C13.2039 17.538 13.2758 17.6933 13.2243 17.8334L13.2226 17.8381C13.1712 17.9783 13.0159 18.0502 12.8758 17.9988C12.7356 17.9474 12.6637 17.7922 12.7151 17.652L12.7169 17.647C12.7684 17.5069 12.9237 17.435 13.0638 17.4865ZM12.733 18.4758C12.8783 18.5101 12.9683 18.6556 12.9341 18.8009L12.9329 18.8058C12.8988 18.9511 12.7533 19.0412 12.608 19.0071C12.4626 18.9729 12.3725 18.8274 12.4067 18.6821L12.4079 18.6769C12.4422 18.5316 12.5877 18.4416 12.733 18.4758ZM25.6453 18.4758C25.7906 18.4416 25.9362 18.5316 25.9704 18.6769L25.9717 18.6821C26.0058 18.8274 25.9157 18.9729 25.7704 19.0071C25.6251 19.0412 25.4796 18.9511 25.4455 18.8058L25.4443 18.8009C25.41 18.6556 25.5001 18.5101 25.6453 18.4758ZM12.5227 19.4978C12.671 19.5148 12.7774 19.6488 12.7604 19.7971L12.7598 19.8021C12.7429 19.9504 12.6089 20.0569 12.4606 20.04C12.3123 20.0231 12.2058 19.8891 12.2228 19.7408L12.2234 19.7355C12.2404 19.5872 12.3744 19.4808 12.5227 19.4978ZM25.8557 19.4978C26.0039 19.4808 26.1379 19.5872 26.155 19.7355L26.1556 19.7408C26.1725 19.8891 26.066 20.0231 25.9177 20.04C25.7695 20.0569 25.6355 19.9504 25.6185 19.8021L25.6179 19.7971C25.601 19.6488 25.7073 19.5148 25.8557 19.4978ZM25.9459 20.5379C26.0951 20.5378 26.2162 20.6588 26.2162 20.808V20.8107V20.8134C26.2162 20.9627 26.0951 21.0837 25.9459 21.0836C25.7966 21.0836 25.6756 20.9625 25.6757 20.8133V20.8107V20.8082C25.6756 20.659 25.7966 20.5379 25.9459 20.5379ZM12.4325 20.5379C12.5818 20.5379 12.7028 20.659 12.7027 20.8082V20.8107V20.8133C12.7028 20.9625 12.5818 21.0836 12.4325 21.0836C12.2832 21.0837 12.1622 20.9627 12.1622 20.8134V20.8107V20.808C12.1622 20.6588 12.2832 20.5378 12.4325 20.5379ZM25.9177 21.5815C26.066 21.5984 26.1725 21.7324 26.1556 21.8807L26.155 21.886C26.1379 22.0343 26.0039 22.1407 25.8557 22.1237C25.7073 22.1066 25.601 21.9726 25.6179 21.8244L25.6185 21.8193C25.6355 21.6711 25.7695 21.5646 25.9177 21.5815ZM12.4606 21.5815C12.6089 21.5646 12.7429 21.6711 12.7598 21.8193L12.7604 21.8244C12.7774 21.9726 12.671 22.1066 12.5227 22.1237C12.3744 22.1407 12.2404 22.0343 12.2234 21.886L12.2228 21.8807C12.2058 21.7324 12.3123 21.5984 12.4606 21.5815ZM25.7704 22.6144C25.9157 22.6486 26.0058 22.794 25.9717 22.9393L25.9704 22.9446C25.9362 23.0899 25.7906 23.1799 25.6453 23.1457C25.5001 23.1114 25.41 22.9659 25.4443 22.8206L25.4455 22.8157C25.4796 22.6704 25.6251 22.5802 25.7704 22.6144ZM12.608 22.6144C12.7533 22.5802 12.8988 22.6704 12.9329 22.8157L12.9341 22.8206C12.9683 22.9659 12.8783 23.1114 12.733 23.1457C12.5877 23.1799 12.4422 23.0899 12.4079 22.9446L12.4067 22.9393C12.3725 22.794 12.4626 22.6486 12.608 22.6144ZM12.8758 23.6226C13.0159 23.5712 13.1712 23.6432 13.2226 23.7833L13.2243 23.7881C13.2758 23.9282 13.2039 24.0835 13.0638 24.135C12.9237 24.1865 12.7684 24.1146 12.7169 23.9745L12.7151 23.9694C12.6637 23.8293 12.7356 23.674 12.8758 23.6226ZM25.5026 23.6226C25.6428 23.674 25.7147 23.8293 25.6633 23.9694L25.6615 23.9745C25.6099 24.1146 25.4546 24.1865 25.3145 24.135C25.1744 24.0835 25.1026 23.9282 25.154 23.7881L25.1558 23.7833C25.2072 23.6432 25.3625 23.5712 25.5026 23.6226ZM13.2641 24.5913C13.3967 24.5228 13.5597 24.5748 13.6282 24.7075L13.6305 24.7119C13.699 24.8445 13.6471 25.0076 13.5145 25.0761C13.3819 25.1447 13.2189 25.0928 13.1503 24.9602L13.1479 24.9554C13.0794 24.8228 13.1314 24.6598 13.2641 24.5913ZM25.1143 24.5913C25.247 24.6598 25.299 24.8228 25.2305 24.9554L25.2281 24.9602C25.1595 25.0928 24.9964 25.1447 24.8638 25.0761C24.7312 25.0076 24.6793 24.8445 24.7479 24.712L24.7502 24.7075C24.8186 24.5748 24.9817 24.5228 25.1143 24.5913ZM13.7712 25.5033C13.8938 25.4182 14.0622 25.4485 14.1474 25.5711L14.1502 25.5752C14.2355 25.6978 14.2052 25.8662 14.0828 25.9514C13.9602 26.0367 13.7918 26.0065 13.7065 25.8839L13.7035 25.8795C13.6183 25.757 13.6486 25.5885 13.7712 25.5033ZM24.6072 25.5033C24.7297 25.5885 24.7601 25.757 24.6749 25.8795L24.6718 25.8839C24.5866 26.0065 24.4182 26.0367 24.2956 25.9514C24.1731 25.8662 24.1429 25.6978 24.2282 25.5752L24.231 25.5711C24.3162 25.4485 24.4846 25.4182 24.6072 25.5033ZM14.3942 26.3405C14.5039 26.2392 14.6749 26.2461 14.7761 26.3558L14.7795 26.3595C14.8808 26.4691 14.8741 26.6401 14.7644 26.7414C14.6548 26.8427 14.4838 26.8359 14.3825 26.7263L14.3788 26.7224C14.2776 26.6127 14.2845 26.4417 14.3942 26.3405ZM23.9842 26.3405C24.0939 26.4417 24.1008 26.6127 23.9995 26.7224L23.9959 26.7263C23.8946 26.8359 23.7236 26.8427 23.6139 26.7414C23.5043 26.6401 23.4976 26.4691 23.5989 26.3595L23.6023 26.3558C23.7035 26.2461 23.8745 26.2392 23.9842 26.3405ZM15.1279 27.0823C15.2216 26.9661 15.3917 26.9478 15.5079 27.0415L15.5118 27.0446C15.6281 27.1382 15.6465 27.3083 15.553 27.4246C15.4593 27.5409 15.2892 27.5593 15.1729 27.4657L15.1688 27.4624C15.0525 27.3687 15.0343 27.1985 15.1279 27.0823ZM23.2504 27.0823C23.3441 27.1985 23.3258 27.3687 23.2096 27.4624L23.2054 27.4657C23.0891 27.5593 22.919 27.5409 22.8254 27.4246C22.7318 27.3083 22.7503 27.1382 22.8665 27.0446L22.8704 27.0415C22.9866 26.9478 23.1568 26.9661 23.2504 27.0823ZM15.964 27.7065C16.0383 27.577 16.2035 27.5322 16.3329 27.6065L16.3372 27.6089C16.4668 27.6831 16.5117 27.8482 16.4375 27.9778C16.3633 28.1073 16.1982 28.1522 16.0687 28.078L16.064 28.0754C15.9345 28.0011 15.8897 27.8359 15.964 27.7065ZM22.4144 27.7065C22.4886 27.8359 22.4438 28.0011 22.3144 28.0754L22.3097 28.078C22.1802 28.1522 22.015 28.1073 21.9409 27.9778C21.8667 27.8482 21.9116 27.6831 22.0411 27.6089L22.0455 27.6065C22.1749 27.5322 22.3401 27.577 22.4144 27.7065ZM16.889 28.1892C16.9405 28.0491 17.0959 27.9774 17.236 28.029L17.2406 28.0307C17.3808 28.0821 17.4526 28.2374 17.4012 28.3775C17.3497 28.5177 17.1944 28.5895 17.0543 28.5381L17.0492 28.5362C16.9091 28.4846 16.8374 28.3293 16.889 28.1892ZM21.4894 28.1892C21.541 28.3293 21.4692 28.4846 21.3292 28.5362L21.3241 28.5381C21.1839 28.5895 21.0286 28.5177 20.9772 28.3775C20.9257 28.2374 20.9976 28.0821 21.1377 28.0307L21.1424 28.029C21.2824 27.9774 21.4378 28.0491 21.4894 28.1892ZM17.8823 28.5085C17.9087 28.3615 18.0491 28.2638 18.1961 28.2901L18.201 28.291C18.3479 28.3172 18.4458 28.4576 18.4196 28.6045C18.3933 28.7515 18.253 28.8494 18.106 28.8231L18.1006 28.8222C17.9537 28.7958 17.856 28.6554 17.8823 28.5085ZM20.4961 28.5085C20.5224 28.6554 20.4246 28.7958 20.2777 28.8222L20.2724 28.8231C20.1254 28.8494 19.985 28.7515 19.9588 28.6045C19.9326 28.4576 20.0305 28.3172 20.1774 28.291L20.1823 28.2901C20.3292 28.2638 20.4697 28.3615 20.4961 28.5085ZM18.9163 28.6485C18.9164 28.4992 19.0374 28.3783 19.1867 28.3783H19.1892H19.1917C19.341 28.3783 19.462 28.4992 19.4621 28.6485C19.4622 28.7977 19.3412 28.9188 19.1919 28.9188H19.1892H19.1865C19.0372 28.9188 18.9163 28.7977 18.9163 28.6485ZM19.1892 13.7837H19.1863C19.037 13.7838 18.9161 13.9048 18.9162 14.0541C18.9163 14.2034 19.0373 14.3243 19.1866 14.3242H19.1892H19.1918C19.3411 14.3243 19.4621 14.2034 19.4622 14.0541C19.4623 13.9048 19.3413 13.7838 19.1921 13.7837H19.1892ZM20.3357 13.9078C20.1898 13.8758 20.0457 13.9681 20.0138 14.1139C19.9818 14.2597 20.074 14.4038 20.2199 14.4358L20.2249 14.4369C20.3707 14.469 20.5149 14.3769 20.547 14.2311C20.5792 14.0853 20.487 13.9411 20.3413 13.909L20.3357 13.9078ZM18.1585 14.4358C18.3043 14.4038 18.3966 14.2597 18.3646 14.1139C18.3326 13.9681 18.1885 13.8758 18.0427 13.9078L18.0371 13.909C17.8913 13.9411 17.7992 14.0853 17.8313 14.2311C17.8635 14.3769 18.0077 14.469 18.1535 14.4369L18.1585 14.4358ZM21.4306 14.2738C21.2948 14.2119 21.1345 14.2718 21.0726 14.4076C21.0107 14.5434 21.0706 14.7037 21.2064 14.7657L21.2112 14.7678C21.3469 14.8298 21.5073 14.7701 21.5693 14.6343C21.6314 14.4986 21.5716 14.3382 21.4359 14.2761L21.4306 14.2738ZM17.1719 14.7657C17.3077 14.7037 17.3677 14.5434 17.3058 14.4076C17.2438 14.2718 17.0836 14.2119 16.9477 14.2738L16.9425 14.2761C16.8068 14.3382 16.747 14.4986 16.809 14.6343C16.8711 14.7701 17.0315 14.8298 17.1672 14.7678L17.1719 14.7657ZM22.4251 14.854C22.3041 14.7665 22.1351 14.7936 22.0477 14.9146C21.9602 15.0355 21.9873 15.2045 22.1083 15.2919L22.1125 15.295C22.2333 15.3826 22.4023 15.3556 22.4899 15.2347C22.5775 15.1139 22.5505 14.9449 22.4297 14.8573L22.4251 14.854ZM16.2701 15.2919C16.391 15.2045 16.4182 15.0355 16.3307 14.9146C16.2432 14.7936 16.0743 14.7665 15.9533 14.854L15.9487 14.8573C15.8278 14.9449 15.8009 15.1139 15.8884 15.2347C15.9761 15.3556 16.145 15.3826 16.2659 15.295L16.2701 15.2919ZM23.2886 15.6095C23.1856 15.5015 23.0145 15.4975 22.9065 15.6005C22.7985 15.7035 22.7945 15.8746 22.8976 15.9826L22.9012 15.9865C23.0041 16.0945 23.1752 16.0987 23.2833 15.9958C23.3914 15.8928 23.3956 15.7218 23.2926 15.6137L23.2886 15.6095ZM15.4808 15.9826C15.5838 15.8746 15.5798 15.7035 15.4718 15.6005C15.3638 15.4975 15.1928 15.5015 15.0897 15.6095L15.0858 15.6137C14.9828 15.7218 14.987 15.8928 15.0951 15.9958C15.2032 16.0987 15.3743 16.0945 15.4772 15.9865L15.4808 15.9826ZM14.8219 16.8034C14.9054 16.6797 14.8727 16.5117 14.7489 16.4282C14.6251 16.3448 14.4572 16.3775 14.3737 16.5013L14.3705 16.506C14.2872 16.6299 14.3201 16.7978 14.4439 16.8811C14.5678 16.9645 14.7357 16.9316 14.819 16.8078L14.8219 16.8034ZM24.0046 16.5013C23.9212 16.3775 23.7532 16.3448 23.6295 16.4282C23.5057 16.5117 23.473 16.6797 23.5564 16.8034L23.5593 16.8078C23.6426 16.9316 23.8106 16.9645 23.9345 16.8811C24.0583 16.7978 24.0911 16.6299 24.0078 16.506L24.0046 16.5013ZM14.3035 17.7233C14.3664 17.588 14.3076 17.4272 14.1723 17.3644C14.0369 17.3014 13.8762 17.3602 13.8133 17.4955L13.8109 17.5007C13.7481 17.6361 13.807 17.7968 13.9424 17.8596C14.0778 17.9224 14.2385 17.8635 14.3013 17.7281L14.3035 17.7233ZM24.5651 17.4955C24.5022 17.3602 24.3415 17.3014 24.2061 17.3644C24.0708 17.4272 24.012 17.588 24.0749 17.7233L24.0771 17.7281C24.1399 17.8635 24.3006 17.9224 24.436 17.8596C24.5714 17.7968 24.6303 17.6361 24.5675 17.5007L24.5651 17.4955ZM13.9316 18.7135C13.9735 18.5702 13.8914 18.4201 13.7481 18.3782C13.6049 18.3363 13.4548 18.4184 13.4128 18.5617L13.4112 18.5671C13.3694 18.7104 13.4517 18.8605 13.595 18.9022C13.7383 18.9441 13.8883 18.8618 13.9301 18.7185L13.9316 18.7135ZM24.9656 18.5617C24.9236 18.4184 24.7735 18.3363 24.6303 18.3782C24.487 18.4201 24.4049 18.5702 24.4468 18.7135L24.4483 18.7185C24.4901 18.8618 24.6401 18.9441 24.7834 18.9022C24.9267 18.8605 25.009 18.7104 24.9671 18.5671L24.9656 18.5617ZM13.7087 19.7494C13.7295 19.6017 13.6266 19.4649 13.4788 19.4441C13.331 19.4232 13.1943 19.5261 13.1735 19.674L13.1726 19.6796C13.1519 19.8274 13.2549 19.964 13.4028 19.9848C13.5506 20.0055 13.6872 19.9025 13.7079 19.7547L13.7087 19.7494ZM25.2049 19.674C25.1841 19.5261 25.0474 19.4232 24.8996 19.4441C24.7518 19.4649 24.6489 19.6017 24.6697 19.7494L24.6704 19.7547C24.6912 19.9025 24.8278 20.0055 24.9756 19.9848C25.1235 19.964 25.2265 19.8274 25.2057 19.6796L25.2049 19.674ZM13.6346 20.8081C13.6347 20.6588 13.5138 20.5378 13.3645 20.5377C13.2152 20.5377 13.0942 20.6586 13.0941 20.8079V20.8107V20.8136C13.0942 20.9628 13.2152 21.0838 13.3645 21.0838C13.5138 21.0837 13.6347 20.9627 13.6346 20.8134V20.8107V20.8081ZM25.2843 20.8079C25.2842 20.6586 25.1631 20.5377 25.0139 20.5377C24.8646 20.5378 24.7437 20.6588 24.7437 20.8081V20.8107V20.8134C24.7437 20.9627 24.8646 21.0837 25.0139 21.0838C25.1631 21.0838 25.2842 20.9628 25.2843 20.8136V20.8107V20.8079ZM13.7079 21.8668C13.6872 21.719 13.5506 21.6159 13.4028 21.6367C13.2549 21.6574 13.1519 21.7941 13.1726 21.9419L13.1735 21.9475C13.1943 22.0953 13.331 22.1982 13.4788 22.1774C13.6266 22.1566 13.7295 22.0198 13.7087 21.872L13.7079 21.8668ZM25.2057 21.9419C25.2265 21.7941 25.1235 21.6574 24.9756 21.6367C24.8278 21.6159 24.6912 21.719 24.6704 21.8668L24.6697 21.872C24.6489 22.0198 24.7518 22.1566 24.8996 22.1774C25.0474 22.1982 25.1841 22.0953 25.2049 21.9475L25.2057 21.9419ZM13.9301 22.903C13.8883 22.7597 13.7383 22.6774 13.595 22.7192C13.4517 22.761 13.3694 22.9111 13.4112 23.0544L13.4128 23.0598C13.4548 23.2031 13.6049 23.2852 13.7481 23.2433C13.8914 23.2014 13.9735 23.0512 13.9316 22.908L13.9301 22.903ZM24.9671 23.0544C25.009 22.9111 24.9267 22.761 24.7834 22.7192C24.6401 22.6774 24.4901 22.7597 24.4483 22.903L24.4468 22.908C24.4049 23.0512 24.487 23.2014 24.6303 23.2433C24.7735 23.2852 24.9236 23.2031 24.9656 23.0598L24.9671 23.0544ZM14.3013 23.8934C14.2385 23.758 14.0778 23.6991 13.9424 23.7619C13.807 23.8247 13.7481 23.9854 13.8109 24.1208L13.8133 24.1259C13.8762 24.2613 14.0369 24.32 14.1723 24.2571C14.3076 24.1942 14.3664 24.0335 14.3035 23.8981L14.3013 23.8934ZM24.5675 24.1208C24.6303 23.9854 24.5714 23.8247 24.436 23.7619C24.3006 23.6991 24.1399 23.758 24.0771 23.8934L24.0749 23.8981C24.012 24.0335 24.0708 24.1942 24.2061 24.2571C24.3415 24.32 24.5022 24.2613 24.5651 24.1259L24.5675 24.1208ZM14.819 24.8137C14.7357 24.6899 14.5678 24.657 14.4439 24.7404C14.3201 24.8237 14.2872 24.9916 14.3705 25.1154L14.3737 25.1202C14.4572 25.2439 14.6251 25.2767 14.7489 25.1932C14.8727 25.1098 14.9054 24.9418 14.8219 24.818L14.819 24.8137ZM24.0078 25.1154C24.0911 24.9916 24.0583 24.8237 23.9344 24.7404C23.8106 24.657 23.6426 24.6899 23.5593 24.8137L23.5564 24.818C23.473 24.9418 23.5057 25.1098 23.6295 25.1932C23.7532 25.2767 23.9212 25.2439 24.0046 25.1202L24.0078 25.1154ZM15.4772 25.635C15.3743 25.527 15.2032 25.5227 15.0951 25.6257C14.987 25.7286 14.9828 25.8997 15.0858 26.0078L15.0897 26.0119C15.1928 26.1199 15.3638 26.124 15.4718 26.021C15.5798 25.9179 15.5838 25.7468 15.4808 25.6388L15.4772 25.635ZM23.2926 26.0078C23.3956 25.8997 23.3914 25.7286 23.2833 25.6257C23.1752 25.5227 23.0041 25.527 22.9012 25.635L22.8976 25.6388C22.7945 25.7468 22.7985 25.9179 22.9065 26.021C23.0145 26.124 23.1856 26.1199 23.2886 26.0119L23.2926 26.0078ZM22.4297 26.7641C22.5505 26.6766 22.5775 26.5076 22.4899 26.3867C22.4023 26.2659 22.2333 26.2389 22.1125 26.3265L22.1083 26.3295C21.9873 26.417 21.9602 26.586 22.0477 26.7069C22.1351 26.8279 22.3041 26.855 22.4251 26.7675L22.4297 26.7641ZM16.2659 26.3265C16.145 26.2389 15.9761 26.2659 15.8884 26.3867C15.8009 26.5076 15.8278 26.6766 15.9487 26.7641L15.9533 26.7675C16.0743 26.855 16.2432 26.8279 16.3307 26.7069C16.4182 26.586 16.391 26.417 16.2701 26.3295L16.2659 26.3265ZM17.1672 26.8537C17.0315 26.7917 16.8711 26.8514 16.809 26.9872C16.747 27.1229 16.8068 27.2833 16.9425 27.3453L16.9477 27.3477C17.0836 27.4096 17.2438 27.3497 17.3058 27.2139C17.3677 27.078 17.3077 26.9178 17.1719 26.8558L17.1672 26.8537ZM21.4359 27.3453C21.5716 27.2833 21.6314 27.1229 21.5693 26.9872C21.5073 26.8514 21.3469 26.7917 21.2112 26.8537L21.2064 26.8558C21.0706 26.9178 21.0107 27.078 21.0726 27.2139C21.1345 27.3497 21.2948 27.4096 21.4306 27.3477L21.4359 27.3453ZM18.1535 27.1846C18.0077 27.1525 17.8635 27.2446 17.8313 27.3904C17.7992 27.5361 17.8913 27.6804 18.0371 27.7125L18.0427 27.7137C18.1885 27.7457 18.3326 27.6534 18.3646 27.5076C18.3966 27.3618 18.3043 27.2177 18.1585 27.1857L18.1535 27.1846ZM20.3413 27.7125C20.487 27.6804 20.5792 27.5361 20.547 27.3904C20.5149 27.2446 20.3707 27.1525 20.2249 27.1846L20.2199 27.1857C20.074 27.2177 19.9818 27.3618 20.0138 27.5076C20.0457 27.6534 20.1898 27.7457 20.3357 27.7137L20.3413 27.7125ZM19.1866 27.2972C19.0373 27.2972 18.9163 27.4181 18.9162 27.5673C18.9161 27.7166 19.037 27.8377 19.1863 27.8378H19.1892H19.1921C19.3413 27.8377 19.4623 27.7166 19.4622 27.5673C19.4621 27.4181 19.3411 27.2972 19.1918 27.2972H19.1892H19.1866ZM19.1864 14.8648H19.1892H19.1919C19.3412 14.8649 19.4622 14.986 19.4621 15.1352C19.4619 15.2845 19.3409 15.4054 19.1916 15.4053H19.1892H19.1868C19.0375 15.4054 18.9164 15.2845 18.9163 15.1352C18.9162 14.986 19.0372 14.8649 19.1864 14.8648ZM19.9533 15.1952C19.9892 15.0503 20.1358 14.9619 20.2806 14.9978L20.286 14.9992C20.4309 15.0352 20.519 15.1819 20.483 15.3267C20.4469 15.4715 20.3003 15.5598 20.1554 15.5237L20.1507 15.5225C20.0058 15.4866 19.9175 15.3401 19.9533 15.1952ZM18.425 15.1952C18.4609 15.3401 18.3725 15.4866 18.2277 15.5225L18.223 15.5237C18.0781 15.5598 17.9315 15.4715 17.8954 15.3267C17.8593 15.1819 17.9475 15.0352 18.0924 14.9992L18.0977 14.9978C18.2426 14.9619 18.3891 15.0503 18.425 15.1952ZM20.9452 15.5027C21.014 15.3702 21.1771 15.3186 21.3096 15.3873L21.3145 15.3899C21.4469 15.4588 21.4984 15.622 21.4295 15.7544C21.3606 15.8868 21.1974 15.9383 21.065 15.8694L21.0606 15.8671C20.9282 15.7984 20.8765 15.6352 20.9452 15.5027ZM17.4331 15.5027C17.5019 15.6352 17.4502 15.7984 17.3177 15.8671L17.3134 15.8694C17.181 15.9383 17.0178 15.8868 16.9489 15.7544C16.88 15.622 16.9315 15.4588 17.0639 15.3899L17.0688 15.3873C17.2012 15.3186 17.3644 15.3702 17.4331 15.5027ZM21.8399 16.0301C21.9357 15.9157 22.1062 15.9005 22.2206 15.9962L22.2248 15.9997C22.3392 16.0955 22.3543 16.266 22.2584 16.3804C22.1625 16.4948 21.9921 16.5099 21.8776 16.414L21.8739 16.4108C21.7594 16.3151 21.7442 16.1447 21.8399 16.0301ZM16.5384 16.0301C16.6342 16.1447 16.619 16.3151 16.5045 16.4108L16.5008 16.414C16.3863 16.5099 16.2158 16.4948 16.12 16.3804C16.0241 16.266 16.0391 16.0955 16.1536 15.9997L16.1577 15.9962C16.2723 15.9005 16.4427 15.9157 16.5384 16.0301ZM15.7753 16.7348C15.8917 16.8282 15.9104 16.9983 15.817 17.1147L15.8139 17.1186C15.7207 17.2351 15.5506 17.254 15.4341 17.1607C15.3175 17.0674 15.2987 16.8973 15.3919 16.7808L15.3953 16.7765C15.4888 16.6601 15.6589 16.6414 15.7753 16.7348ZM22.6031 16.7348C22.7195 16.6414 22.8896 16.6601 22.983 16.7765L22.9864 16.7808C23.0797 16.8973 23.0609 17.0674 22.9443 17.1607C22.8278 17.254 22.6577 17.2351 22.5644 17.1186L22.5613 17.1147C22.4679 16.9983 22.4866 16.8282 22.6031 16.7348ZM15.1625 17.5735C15.2939 17.6442 15.3432 17.8081 15.2725 17.9395L15.2702 17.9439C15.1996 18.0754 15.0358 18.1249 14.9043 18.0543C14.7728 17.9838 14.7233 17.8199 14.7939 17.6884L14.7964 17.6836C14.8671 17.5521 15.031 17.5028 15.1625 17.5735ZM23.2159 17.5735C23.3474 17.5028 23.5112 17.5521 23.5819 17.6836L23.5845 17.6884C23.6551 17.8199 23.6056 17.9838 23.4741 18.0543C23.3426 18.1249 23.1788 18.0754 23.1082 17.9439L23.1058 17.9395C23.0351 17.8081 23.0844 17.6442 23.2159 17.5735ZM14.7094 18.5082C14.851 18.5554 14.9276 18.7085 14.8804 18.8501L14.8788 18.8548C14.8317 18.9965 14.6787 19.0731 14.5371 19.026C14.3954 18.979 14.3188 18.826 14.3658 18.6844L14.3676 18.6792C14.4148 18.5376 14.5678 18.4611 14.7094 18.5082ZM23.669 18.5082C23.8106 18.4611 23.9636 18.5376 24.0108 18.6792L24.0125 18.6844C24.0596 18.826 23.983 18.979 23.8413 19.026C23.6997 19.0731 23.5466 18.9965 23.4996 18.8548L23.4981 18.8501C23.4508 18.7085 23.5273 18.5554 23.669 18.5082ZM14.4205 19.5061C14.5679 19.5295 14.6683 19.6681 14.6449 19.8155L14.6441 19.8204C14.6208 19.9678 14.4823 20.0684 14.3349 20.045C14.1874 20.0217 14.0869 19.8832 14.1102 19.7358L14.1111 19.7305C14.1345 19.5831 14.2731 19.4826 14.4205 19.5061ZM23.9579 19.5061C24.1053 19.4826 24.2438 19.5831 24.2673 19.7305L24.2682 19.7358C24.2915 19.8832 24.191 20.0217 24.0435 20.045C23.8961 20.0684 23.7576 19.9678 23.7343 19.8204L23.7335 19.8155C23.7101 19.6681 23.8105 19.5295 23.9579 19.5061ZM14.2965 20.5379C14.4457 20.5379 14.5667 20.659 14.5666 20.8082V20.8107V20.8132C14.5667 20.9625 14.4457 21.0835 14.2965 21.0836C14.1472 21.0837 14.0262 20.9627 14.0261 20.8134V20.8107V20.808C14.0262 20.6588 14.1472 20.5378 14.2965 20.5379ZM24.0819 20.5379C24.2312 20.5378 24.3522 20.6588 24.3523 20.808V20.8107V20.8134C24.3522 20.9627 24.2312 21.0837 24.0819 21.0836C23.9326 21.0835 23.8117 20.9625 23.8117 20.8132V20.8107V20.8082C23.8117 20.659 23.9326 20.5379 24.0819 20.5379ZM14.3349 21.5765C14.4823 21.5531 14.6208 21.6537 14.6441 21.8011L14.6449 21.806C14.6683 21.9534 14.5679 22.0919 14.4205 22.1154C14.2731 22.1388 14.1345 22.0384 14.1111 21.891L14.1102 21.8857C14.0869 21.7383 14.1874 21.5998 14.3349 21.5765ZM24.0435 21.5765C24.191 21.5998 24.2915 21.7383 24.2682 21.8857L24.2673 21.891C24.2438 22.0384 24.1053 22.1388 23.9579 22.1154C23.8105 22.0919 23.7101 21.9534 23.7335 21.806L23.7343 21.8011C23.7576 21.6537 23.8961 21.5531 24.0435 21.5765ZM14.5371 22.5954C14.6787 22.5484 14.8317 22.625 14.8788 22.7666L14.8803 22.7713C14.9276 22.913 14.851 23.066 14.7094 23.1132C14.5678 23.1604 14.4148 23.0839 14.3676 22.9422L14.3658 22.9371C14.3188 22.7955 14.3954 22.6425 14.5371 22.5954ZM23.8413 22.5954C23.983 22.6425 24.0596 22.7955 24.0125 22.9371L24.0108 22.9422C23.9636 23.0839 23.8106 23.1604 23.669 23.1132C23.5273 23.066 23.4508 22.913 23.4981 22.7713L23.4996 22.7666C23.5466 22.625 23.6997 22.5484 23.8413 22.5954ZM14.9043 23.5672C15.0358 23.4966 15.1996 23.546 15.2702 23.6775L15.2725 23.6819C15.3432 23.8134 15.2939 23.9773 15.1625 24.0479C15.031 24.1186 14.8671 24.0693 14.7964 23.9379L14.7939 23.9331C14.7233 23.8015 14.7728 23.6377 14.9043 23.5672ZM23.4741 23.5672C23.6056 23.6377 23.6551 23.8015 23.5845 23.9331L23.5819 23.9379C23.5112 24.0693 23.3474 24.1186 23.2159 24.0479C23.0844 23.9773 23.0351 23.8134 23.1058 23.6819L23.1082 23.6775C23.1788 23.546 23.3426 23.4966 23.4741 23.5672ZM15.4341 24.4608C15.5506 24.3675 15.7207 24.3864 15.8139 24.5029L15.817 24.5067C15.9104 24.6232 15.8917 24.7933 15.7753 24.8867C15.6589 24.9801 15.4888 24.9614 15.3953 24.845L15.3919 24.8407C15.2987 24.7241 15.3175 24.5541 15.4341 24.4608ZM22.9443 24.4608C23.0609 24.5541 23.0797 24.7241 22.9864 24.8407L22.983 24.845C22.8896 24.9614 22.7195 24.9801 22.6031 24.8867C22.4866 24.7933 22.4679 24.6232 22.5613 24.5067L22.5644 24.5029C22.6577 24.3864 22.8278 24.3675 22.9443 24.4608ZM16.12 25.2411C16.2158 25.1266 16.3863 25.1116 16.5008 25.2075L16.5045 25.2106C16.619 25.3064 16.6342 25.4768 16.5384 25.5913C16.4427 25.7058 16.2723 25.721 16.1577 25.6253L16.1536 25.6218C16.0391 25.5259 16.0241 25.3554 16.12 25.2411ZM22.2584 25.2411C22.3543 25.3554 22.3392 25.5259 22.2248 25.6218L22.2206 25.6253C22.1062 25.721 21.9357 25.7058 21.8399 25.5913C21.7442 25.4768 21.7594 25.3064 21.8739 25.2106L21.8776 25.2075C21.9921 25.1116 22.1625 25.1266 22.2584 25.2411ZM21.4295 25.8671C21.4984 25.9995 21.4469 26.1627 21.3145 26.2316L21.3096 26.2341C21.1771 26.3029 21.014 26.2512 20.9452 26.1187C20.8765 25.9862 20.9282 25.8231 21.0606 25.7544L21.065 25.7521C21.1974 25.6832 21.3606 25.7347 21.4295 25.8671ZM16.9489 25.8671C17.0178 25.7347 17.181 25.6832 17.3134 25.7521L17.3177 25.7544C17.4502 25.8231 17.5019 25.9862 17.4331 26.1187C17.3644 26.2512 17.2012 26.3029 17.0688 26.2341L17.0639 26.2316C16.9315 26.1627 16.88 25.9995 16.9489 25.8671ZM20.483 26.2948C20.519 26.4396 20.4309 26.5862 20.286 26.6223L20.2806 26.6237C20.1358 26.6595 19.9892 26.5712 19.9533 26.4262C19.9175 26.2814 20.0058 26.1348 20.1507 26.099L20.1554 26.0978C20.3003 26.0617 20.4469 26.1499 20.483 26.2948ZM17.8954 26.2948C17.9315 26.1499 18.0781 26.0617 18.223 26.0978L18.2277 26.099C18.3725 26.1348 18.4609 26.2814 18.425 26.4262C18.3891 26.5712 18.2426 26.6595 18.0977 26.6237L18.0924 26.6223C17.9475 26.5862 17.8593 26.4396 17.8954 26.2948ZM18.9163 26.4862C18.9164 26.337 19.0375 26.216 19.1868 26.2161H19.1892H19.1916C19.3409 26.216 19.4619 26.337 19.4621 26.4862C19.4622 26.6355 19.3412 26.7566 19.1919 26.7567H19.1892H19.1864C19.0372 26.7566 18.9162 26.6355 18.9163 26.4862ZM19.1892 15.9459H19.1862C19.0369 15.946 18.916 16.0671 18.9161 16.2164C18.9162 16.3656 19.0373 16.4865 19.1866 16.4864H19.1892H19.1918C19.341 16.4865 19.4622 16.3656 19.4623 16.2164C19.4624 16.0671 19.3415 15.946 19.1922 15.9459H19.1892ZM20.3744 16.1392C20.2329 16.0918 20.0797 16.1682 20.0324 16.3098C19.985 16.4513 20.0614 16.6044 20.203 16.6518L20.2078 16.6534C20.3493 16.701 20.5026 16.6248 20.5502 16.4834C20.5977 16.3419 20.5216 16.1886 20.3801 16.1411L20.3744 16.1392ZM18.1754 16.6518C18.317 16.6044 18.3933 16.4513 18.346 16.3098C18.2986 16.1682 18.1455 16.0918 18.0039 16.1392L17.9983 16.1411C17.8568 16.1886 17.7806 16.3419 17.8282 16.4834C17.8758 16.6248 18.0291 16.701 18.1705 16.6534L18.1754 16.6518ZM21.4395 16.6895C21.3185 16.602 21.1495 16.6292 21.0621 16.7501C20.9746 16.8711 21.0018 17.0401 21.1228 17.1275L21.127 17.1306C21.2478 17.2182 21.4168 17.1913 21.5044 17.0704C21.592 16.9495 21.5651 16.7806 21.4443 16.693L21.4395 16.6895ZM17.2556 17.1275C17.3765 17.0401 17.4037 16.8711 17.3163 16.7501C17.2289 16.6292 17.0599 16.602 16.9389 16.6895L16.9341 16.693C16.8132 16.7806 16.7863 16.9495 16.8739 17.0704C16.9616 17.1913 17.1305 17.2182 17.2514 17.1306L17.2556 17.1275ZM16.4999 17.8504C16.5933 17.734 16.5746 17.5639 16.4583 17.4705C16.3418 17.3771 16.1717 17.3958 16.0783 17.5122L16.0746 17.5168C15.9813 17.6333 16.0002 17.8034 16.1168 17.8967C16.2333 17.9899 16.4033 17.9711 16.4966 17.8545L16.4999 17.8504ZM22.3 17.5122C22.2066 17.3958 22.0365 17.3771 21.9202 17.4705C21.8037 17.5639 21.785 17.734 21.8785 17.8504L21.8817 17.8545C21.975 17.9711 22.1451 17.9899 22.2616 17.8967C22.3782 17.8034 22.397 17.6333 22.3038 17.5168L22.3 17.5122ZM15.9457 18.747C16.0086 18.6116 15.9499 18.4508 15.8146 18.3879C15.6792 18.325 15.5185 18.3837 15.4556 18.5191L15.4531 18.5244C15.3903 18.6598 15.4492 18.8205 15.5846 18.8833C15.7201 18.946 15.8808 18.8871 15.9435 18.7517L15.9457 18.747ZM22.9228 18.5191C22.8599 18.3837 22.6992 18.325 22.5638 18.3879C22.4285 18.4508 22.3697 18.6116 22.4326 18.747L22.4349 18.7517C22.4977 18.8871 22.6583 18.946 22.7937 18.8833C22.9292 18.8205 22.9881 18.6598 22.9253 18.5244L22.9228 18.5191ZM15.6103 19.7514C15.6417 19.6054 15.5488 19.4617 15.4029 19.4303C15.257 19.3989 15.1132 19.4918 15.0818 19.6377L15.0806 19.6434C15.0493 19.7894 15.1423 19.933 15.2883 19.9642C15.4343 19.9955 15.5779 19.9025 15.6091 19.7565L15.6103 19.7514ZM23.2966 19.6377C23.2652 19.4918 23.1214 19.3989 22.9755 19.4303C22.8296 19.4617 22.7368 19.6054 22.7681 19.7514L22.7692 19.7565C22.8005 19.9025 22.9441 19.9955 23.0901 19.9642C23.236 19.933 23.329 19.7893 23.2978 19.6434L23.2966 19.6377ZM23.4203 20.8078C23.4202 20.6585 23.2992 20.5376 23.1499 20.5377C23.0006 20.5377 22.8797 20.6588 22.8798 20.8081V20.8107V20.8134C22.8797 20.9627 23.0006 21.0838 23.1499 21.0838C23.2992 21.0839 23.4202 20.963 23.4203 20.8137V20.8107V20.8078ZM15.4986 20.8081C15.4987 20.6588 15.3777 20.5378 15.2285 20.5377C15.0792 20.5376 14.9582 20.6585 14.9581 20.8078V20.8107V20.8137C14.9582 20.963 15.0792 21.0839 15.2285 21.0838C15.3777 21.0838 15.4987 20.9627 15.4986 20.8134V20.8107V20.8081ZM15.6091 21.865C15.5779 21.719 15.4343 21.626 15.2883 21.6572C15.1423 21.6885 15.0493 21.8321 15.0806 21.9781L15.0818 21.9838C15.1132 22.1297 15.257 22.2226 15.4029 22.1912C15.5488 22.1598 15.6417 22.016 15.6103 21.8701L15.6091 21.865ZM23.2978 21.9781C23.329 21.8321 23.236 21.6885 23.0901 21.6572C22.9441 21.626 22.8005 21.719 22.7692 21.865L22.7681 21.8701C22.7368 22.016 22.8296 22.1598 22.9755 22.1912C23.1214 22.2226 23.2652 22.1297 23.2966 21.9838L23.2978 21.9781ZM15.9435 22.8698C15.8808 22.7344 15.7201 22.6754 15.5846 22.7382C15.4492 22.801 15.3903 22.9617 15.4531 23.0971L15.4556 23.1024C15.5185 23.2378 15.6792 23.2965 15.8146 23.2335C15.9499 23.1706 16.0086 23.0099 15.9457 22.8745L15.9435 22.8698ZM22.9253 23.0971C22.9881 22.9617 22.9292 22.801 22.7937 22.7382C22.6583 22.6754 22.4977 22.7344 22.4349 22.8698L22.4326 22.8745C22.3697 23.0099 22.4285 23.1706 22.5638 23.2335C22.6992 23.2965 22.8599 23.2378 22.9228 23.1024L22.9253 23.0971ZM16.4966 23.767C16.4033 23.6504 16.2333 23.6315 16.1168 23.7248C16.0002 23.818 15.9813 23.9881 16.0746 24.1047L16.0783 24.1093C16.1717 24.2257 16.3418 24.2444 16.4583 24.151C16.5746 24.0575 16.5933 23.8875 16.4999 23.7711L16.4966 23.767ZM22.3038 24.1047C22.397 23.9881 22.3782 23.818 22.2616 23.7248C22.1451 23.6315 21.975 23.6504 21.8817 23.767L21.8785 23.7711C21.785 23.8875 21.8037 24.0575 21.9202 24.151C22.0365 24.2444 22.2066 24.2257 22.3 24.1093L22.3038 24.1047ZM21.4443 24.9285C21.5651 24.8409 21.592 24.6719 21.5044 24.5511C21.4168 24.4302 21.2478 24.4033 21.127 24.4909L21.1228 24.4939C21.0018 24.5814 20.9746 24.7504 21.0621 24.8713C21.1495 24.9922 21.3185 25.0194 21.4395 24.932L21.4443 24.9285ZM17.2514 24.4909C17.1305 24.4033 16.9616 24.4302 16.8739 24.5511C16.7863 24.6719 16.8132 24.8409 16.9341 24.9285L16.9389 24.932C17.0599 25.0194 17.2289 24.9922 17.3163 24.8713C17.4037 24.7504 17.3765 24.5814 17.2556 24.4939L17.2514 24.4909ZM18.1705 24.968C18.0291 24.9205 17.8758 24.9966 17.8282 25.1381C17.7806 25.2795 17.8568 25.4328 17.9983 25.4804L18.0039 25.4823C18.1455 25.5297 18.2986 25.4533 18.346 25.3117C18.3933 25.1702 18.317 25.0171 18.1754 24.9697L18.1705 24.968ZM20.3801 25.4804C20.5216 25.4328 20.5977 25.2795 20.5502 25.1381C20.5026 24.9966 20.3493 24.9205 20.2078 24.968L20.203 24.9697C20.0614 25.0171 19.985 25.1702 20.0324 25.3117C20.0797 25.4533 20.2329 25.5297 20.3744 25.4823L20.3801 25.4804ZM19.1866 25.1351C19.0373 25.135 18.9162 25.2559 18.9161 25.4051C18.916 25.5544 19.0369 25.6755 19.1862 25.6756H19.1892H19.1922C19.3415 25.6755 19.4624 25.5544 19.4623 25.4051C19.4622 25.2559 19.341 25.135 19.1918 25.1351H19.1892H19.1866ZM19.1864 17.027H19.1892H19.192C19.3413 17.0271 19.4622 17.1482 19.4621 17.2975C19.4619 17.4467 19.3408 17.5677 19.1915 17.5675H19.1892H19.1869C19.0376 17.5677 18.9165 17.4467 18.9163 17.2975C18.9162 17.1482 19.0371 17.0271 19.1864 17.027ZM18.4384 17.392C18.4945 17.5303 18.4279 17.688 18.2897 17.7441L18.2854 17.7459C18.1472 17.8023 17.9895 17.736 17.933 17.5978C17.8766 17.4596 17.9429 17.3019 18.0811 17.2454L18.0863 17.2433C18.2246 17.1872 18.3822 17.2537 18.4384 17.392ZM19.94 17.392C19.9962 17.2537 20.1538 17.1872 20.2921 17.2433L20.2973 17.2454C20.4355 17.3019 20.5018 17.4596 20.4453 17.5978C20.3889 17.736 20.2312 17.8023 20.093 17.7459L20.0887 17.7441C19.9504 17.688 19.8838 17.5303 19.94 17.392ZM20.8546 17.8608C20.955 17.7504 21.1259 17.7421 21.2364 17.8425L21.2405 17.8462C21.3509 17.9467 21.3588 18.1177 21.2583 18.228C21.1578 18.3384 20.9868 18.3463 20.8765 18.2458L20.873 18.2426C20.7625 18.1422 20.7543 17.9713 20.8546 17.8608ZM17.5237 17.8608C17.6241 17.9713 17.6158 18.1422 17.5053 18.2426L17.5019 18.2458C17.3916 18.3463 17.2206 18.3384 17.1201 18.228C17.0196 18.1177 17.0275 17.9467 17.1378 17.8462L17.1419 17.8425C17.2525 17.7421 17.4234 17.7504 17.5237 17.8608ZM21.5614 18.6078C21.6903 18.5325 21.8558 18.5759 21.9311 18.7047L21.9339 18.7095C22.0091 18.8385 21.9654 19.004 21.8365 19.0791C21.7075 19.1543 21.542 19.1106 21.4669 18.9817L21.4645 18.9775C21.3891 18.8487 21.4325 18.6832 21.5614 18.6078ZM16.817 18.6078C16.9458 18.6832 16.9892 18.8487 16.9139 18.9775L16.9115 18.9817C16.8364 19.1106 16.6709 19.1543 16.5419 19.0791C16.413 19.004 16.3693 18.8385 16.4445 18.7095L16.4472 18.7047C16.5226 18.5759 16.6881 18.5325 16.817 18.6078ZM22.0199 19.5284C22.1643 19.4907 22.312 19.5771 22.3497 19.7215L22.3511 19.7268C22.3886 19.8713 22.302 20.0188 22.1575 20.0564C22.0131 20.094 21.8655 20.0073 21.8279 19.8628L21.8268 19.8582C21.789 19.7138 21.8755 19.5661 22.0199 19.5284ZM16.3585 19.5284C16.5029 19.5661 16.5893 19.7138 16.5516 19.8582L16.5504 19.8628C16.5129 20.0073 16.3653 20.094 16.2209 20.0564C16.0764 20.0188 15.9897 19.8713 16.0272 19.7268L16.0286 19.7215C16.0664 19.5771 16.2141 19.4907 16.3585 19.5284ZM16.1605 20.5379C16.3097 20.538 16.4306 20.6591 16.4306 20.8083V20.8107V20.8132C16.4306 20.9624 16.3097 21.0835 16.1605 21.0836C16.0112 21.0837 15.8901 20.9627 15.8901 20.8135V20.8107V20.808C15.8901 20.6587 16.0112 20.5378 16.1605 20.5379ZM22.2179 20.5379C22.3672 20.5378 22.4883 20.6587 22.4884 20.808V20.8107V20.8135C22.4883 20.9627 22.3672 21.0837 22.2179 21.0836C22.0686 21.0835 21.9477 20.9624 21.9478 20.8132V20.8107V20.8083C21.9477 20.6591 22.0686 20.538 22.2179 20.5379ZM22.1575 21.5651C22.302 21.6026 22.3886 21.7502 22.3511 21.8946L22.3497 21.8999C22.312 22.0444 22.1643 22.1308 22.0199 22.0931C21.8755 22.0553 21.789 21.9077 21.8268 21.7632L21.8279 21.7586C21.8655 21.6142 22.0131 21.5275 22.1575 21.5651ZM16.2209 21.5651C16.3653 21.5275 16.5129 21.6142 16.5504 21.7586L16.5516 21.7632C16.5893 21.9077 16.5029 22.0553 16.3585 22.0931C16.2141 22.1308 16.0664 22.0444 16.0286 21.8999L16.0272 21.8946C15.9897 21.7502 16.0764 21.6026 16.2209 21.5651ZM21.8365 22.5424C21.9654 22.6175 22.0091 22.783 21.9339 22.9119L21.9311 22.9167C21.8558 23.0456 21.6903 23.089 21.5614 23.0137C21.4325 22.9383 21.3891 22.7728 21.4645 22.6439L21.4669 22.6398C21.542 22.5108 21.7075 22.4672 21.8365 22.5424ZM16.5419 22.5424C16.6709 22.4672 16.8364 22.5108 16.9115 22.6398L16.9139 22.6439C16.9892 22.7728 16.9458 22.9383 16.817 23.0137C16.6881 23.089 16.5226 23.0456 16.4472 22.9167L16.4445 22.9119C16.3693 22.783 16.413 22.6175 16.5419 22.5424ZM21.2583 23.3935C21.3588 23.5038 21.3509 23.6747 21.2405 23.7753L21.2364 23.779C21.1259 23.8794 20.955 23.8711 20.8546 23.7606C20.7543 23.6501 20.7625 23.4792 20.873 23.3788L20.8765 23.3757C20.9868 23.2752 21.1578 23.2831 21.2583 23.3935ZM17.1201 23.3935C17.2206 23.2831 17.3916 23.2752 17.5019 23.3757L17.5053 23.3788C17.6158 23.4792 17.6241 23.6501 17.5237 23.7606C17.4234 23.8711 17.2525 23.8794 17.1419 23.779L17.1378 23.7753C17.0275 23.6747 17.0196 23.5038 17.1201 23.3935ZM17.933 24.0237C17.9895 23.8855 18.1472 23.8192 18.2854 23.8756L18.2897 23.8773C18.4279 23.9335 18.4945 24.0912 18.4384 24.2294C18.3822 24.3678 18.2246 24.4343 18.0863 24.3781L18.0811 24.376C17.9429 24.3196 17.8766 24.1619 17.933 24.0237ZM20.4453 24.0237C20.5018 24.1619 20.4355 24.3196 20.2973 24.376L20.2921 24.3781C20.1538 24.4343 19.9962 24.3678 19.94 24.2294C19.8838 24.0912 19.9504 23.9335 20.0887 23.8773L20.093 23.8756C20.2312 23.8192 20.3889 23.8855 20.4453 24.0237ZM18.9163 24.324C18.9165 24.1747 19.0376 24.0538 19.1869 24.054H19.1892H19.1915C19.3408 24.0538 19.4619 24.1747 19.4621 24.324C19.4622 24.4733 19.3413 24.5944 19.192 24.5945H19.1892H19.1864C19.0371 24.5944 18.9162 24.4733 18.9163 24.324ZM19.1892 18.108H19.1858C19.0365 18.1083 18.9157 18.2295 18.9159 18.3787C18.9162 18.528 19.0374 18.6488 19.1866 18.6486H19.1892H19.1917C19.341 18.6488 19.4622 18.528 19.4624 18.3787C19.4626 18.2295 19.3418 18.1083 19.1926 18.108H19.1892ZM18.2411 18.9631C18.3621 18.8758 18.3894 18.7068 18.3021 18.5858C18.2147 18.4648 18.0457 18.4375 17.9247 18.5248L17.9193 18.5287C17.7985 18.6165 17.7717 18.7854 17.8594 18.9062C17.9471 19.027 18.1162 19.0538 18.2369 18.9661L18.2411 18.9631ZM20.4537 18.5248C20.3326 18.4375 20.1637 18.4648 20.0763 18.5858C19.989 18.7068 20.0163 18.8758 20.1373 18.9631L20.1415 18.9661C20.2623 19.0538 20.4312 19.027 20.519 18.9062C20.6066 18.7854 20.5798 18.6165 20.4591 18.5287L20.4537 18.5248ZM21.2805 19.5424C21.2175 19.4071 21.0567 19.3485 20.9214 19.4115C20.7861 19.4745 20.7275 19.6352 20.7904 19.7706L20.7926 19.7753C20.8553 19.9108 21.016 19.9698 21.1515 19.9071C21.2869 19.8444 21.3459 19.6838 21.2832 19.5483L21.2805 19.5424ZM17.5879 19.7706C17.651 19.6352 17.5923 19.4745 17.457 19.4115C17.3217 19.3485 17.1609 19.4071 17.0979 19.5424L17.0952 19.5483C17.0325 19.6838 17.0915 19.8444 17.2269 19.9071C17.3624 19.9698 17.523 19.9108 17.5857 19.7753L17.5879 19.7706ZM17.3625 20.808C17.3627 20.6588 17.2418 20.5377 17.0925 20.5375C16.9433 20.5373 16.8222 20.6582 16.822 20.8075V20.8107V20.814C16.8222 20.9633 16.9433 21.0841 17.0925 21.084C17.2418 21.0838 17.3627 20.9627 17.3625 20.8134V20.8107V20.808ZM21.5564 20.8075C21.5562 20.6582 21.4351 20.5373 21.2858 20.5375C21.1366 20.5377 21.0157 20.6588 21.0158 20.808V20.8107V20.8134C21.0157 20.9627 21.1366 21.0838 21.2858 21.084C21.4351 21.0841 21.5562 20.9633 21.5564 20.814V20.8107V20.8075ZM17.5857 21.8461C17.523 21.7107 17.3624 21.6517 17.2269 21.7144C17.0915 21.7771 17.0325 21.9377 17.0952 22.0732L17.0979 22.0791C17.1609 22.2144 17.3217 22.273 17.457 22.21C17.5923 22.147 17.651 21.9862 17.5879 21.8509L17.5857 21.8461ZM21.2832 22.0732C21.3459 21.9377 21.2869 21.7771 21.1515 21.7144C21.016 21.6517 20.8553 21.7107 20.7926 21.8461L20.7904 21.8509C20.7275 21.9862 20.7861 22.147 20.9214 22.21C21.0567 22.273 21.2175 22.2144 21.2805 22.0791L21.2832 22.0732ZM18.2369 22.6553C18.1162 22.5677 17.9471 22.5945 17.8594 22.7152C17.7717 22.836 17.7985 23.005 17.9193 23.0927L17.9247 23.0966C18.0457 23.184 18.2147 23.1567 18.3021 23.0357C18.3894 22.9146 18.3621 22.7457 18.2411 22.6584L18.2369 22.6553ZM20.4591 23.0927C20.5798 23.005 20.6066 22.836 20.519 22.7152C20.4312 22.5945 20.2623 22.5677 20.1415 22.6553L20.1373 22.6584C20.0163 22.7457 19.989 22.9146 20.0763 23.0357C20.1637 23.1567 20.3326 23.184 20.4537 23.0966L20.4591 23.0927ZM19.1866 22.9729C19.0374 22.9726 18.9162 23.0934 18.9159 23.2427C18.9157 23.392 19.0365 23.5132 19.1858 23.5134H19.1892H19.1926C19.3418 23.5132 19.4626 23.392 19.4624 23.2427C19.4622 23.0934 19.341 22.9726 19.1917 22.9729H19.1892H19.1866Z" fill="#585857"/>
<path d="M20 1.6C30.2 1.6 38.4 9.9 38.4 20C38.4 30.1 30.2 38.4 20 38.4C9.8 38.4 1.6 30.2 1.6 20C1.6 9.8 9.8 1.6 20 1.6ZM20 0C9 0 0 9 0 20C0 31 9 40 20 40C31 40 40 31 40 20C40 9 31 0 20 0Z" fill="#585857"/>
</svg>
