<svg width="40" height="40" viewBox="0 0 40 40" fill="none" xmlns="http://www.w3.org/2000/svg">
<path d="M20 1.6C30.2 1.6 38.4 9.9 38.4 20C38.4 30.1 30.2 38.4 20 38.4C9.8 38.4 1.6 30.2 1.6 20C1.6 9.8 9.8 1.6 20 1.6ZM20 0C9 0 0 9 0 20C0 31 9 40 20 40C31 40 40 31 40 20C40 9 31 0 20 0Z" fill="#30B1B6"/>
<path d="M9.10001 20.9001C9.10001 20.9001 13.1 23.3001 19.5 20.9001C25.9 18.5001 29.8 21.4001 29.8 21.4001" stroke="#31B1B6" stroke-miterlimit="10"/>
<path d="M9.10001 26.9001C9.10001 26.9001 13.1 29.3001 19.5 26.9001C25.9 24.5001 29.8 27.4001 29.8 27.4001" stroke="#31B1B6" stroke-miterlimit="10"/>
<path d="M9.10001 14.9999C9.10001 14.9999 13.1 17.3999 19.5 14.9999C25.9 12.5999 29.8 15.4999 29.8 15.4999" stroke="#31B1B6" stroke-miterlimit="10"/>
</svg>
