<svg width="40" height="40" viewBox="0 0 40 40" fill="none" xmlns="http://www.w3.org/2000/svg">
<path d="M20 39C30.4382 39 38.9 30.5381 38.9 20.1C38.9 9.66177 30.4382 1.19995 20 1.19995C9.56182 1.19995 1.1 9.66177 1.1 20.1C1.1 30.5381 9.56182 39 20 39Z" stroke="#EAF6FE" stroke-width="0.4123" stroke-miterlimit="10"/>
<path d="M20 0.5C9.2 0.5 0.5 9.3 0.5 20.1C0.5 30.9 9.2 39.6 20 39.6C30.8 39.6 39.5 30.9 39.5 20.1C39.5 9.3 30.8 0.5 20 0.5ZM20 31.5C15.4 31.5 11.5 28.8 9.7 24.9H30.4C28.5 28.8 24.6 31.5 20 31.5ZM9.7 15.2C11.5 11.3 15.5 8.6 20 8.6C24.5 8.6 28.5 11.3 30.3 15.2H9.7Z" fill="#909EBD"/>
<path d="M20 0.5C9.2 0.5 0.5 9.3 0.5 20.1C0.5 30.9 9.2 39.6 20 39.6C30.8 39.6 39.5 30.9 39.5 20.1C39.5 9.3 30.8 0.5 20 0.5ZM20 31.5C15.4 31.5 11.5 28.8 9.7 24.9H30.4C28.5 28.8 24.6 31.5 20 31.5ZM9.7 15.2C11.5 11.3 15.5 8.6 20 8.6C24.5 8.6 28.5 11.3 30.3 15.2H9.7Z" stroke="#1C2445" stroke-width="0.4269" stroke-miterlimit="10"/>
<path d="M20 38.7C30.2725 38.7 38.6 30.3725 38.6 20.1C38.6 9.8275 30.2725 1.5 20 1.5C9.7275 1.5 1.4 9.8275 1.4 20.1C1.4 30.3725 9.7275 38.7 20 38.7Z" stroke="#D9EEFC" stroke-width="0.4071" stroke-miterlimit="10"/>
<path d="M31.9 16.2C30.2 11.7 25.3 7.80005 20 7.80005C14.8 7.80005 9.8 11.6 8.1 16.2H31.9Z" stroke="#D9EEFC" stroke-width="0.4907" stroke-miterlimit="10"/>
<path d="M8.1 24.1001C9.8 28.6001 14.7 32.5001 20 32.5001C25.2 32.5001 30.2 28.7001 31.9 24.1001H8.1Z" stroke="#D9EEFC" stroke-width="0.4907" stroke-miterlimit="10"/>
<path fill-rule="evenodd" clip-rule="evenodd" d="M10.9 21.4999L11.9 20.1999H14C13.6 19.8999 13.2 19.6999 12.8 19.3999C12.5 19.1999 12.8 18.7999 13 18.5999C13.3 18.1999 13.4 17.9999 13.6 17.7999C13.9 17.3999 14.2 17.3999 14.5 17.3999C14.6 17.3999 14.7 17.3999 14.8 17.3999H17.7L16.8 18.6999H14.6C15 18.9999 15.4 19.2999 15.7 19.5999C15.9 19.7999 15.7 20.0999 15.5 20.2999L15 21.1999C14.7 21.4999 14.4 21.4999 14.1 21.4999C12.9 21.4999 12 21.4999 10.9 21.4999Z" fill="white"/>
<path fill-rule="evenodd" clip-rule="evenodd" d="M24.1 22L24.3 21.7H24.4H25H25.2H24.8H25.8H25.9C26 21.7 26 21.7 26.1 21.7C26.2 21.7 26.4 21.7 26.5 21.7C26.3 21.9 26.1 22 25.8 22C25.2 22 24.6 22 24.1 22Z" fill="white"/>
<path fill-rule="evenodd" clip-rule="evenodd" d="M23.7 22.5998L23.9 22.2998H24C24.6 22.2998 25.1 22.2998 25.7 22.2998C25.8 22.2998 26 22.2998 26.1 22.2998C25.9 22.4998 25.7 22.5998 25.4 22.5998C24.8 22.5998 24.2 22.5998 23.7 22.5998Z" fill="white"/>
<path fill-rule="evenodd" clip-rule="evenodd" d="M23.3 23.0999L23.5 22.8999H23.6C24.2 22.8999 24.7 22.8999 25.3 22.8999C25.4 22.8999 25.5 22.8999 25.6 22.8999C25.4 23.0999 25.2 23.1999 24.9 23.1999C24.4 23.0999 23.9 23.0999 23.3 23.0999Z" fill="white"/>
<path fill-rule="evenodd" clip-rule="evenodd" d="M29.7 17.5L27 21.1C26.7 21.5 26.4 21.5 26.1 21.5C25.6 21.5 25 21.5 24.6 21.5L25.5 17.5H26.9L26.4 19.8L26.6 19.5L28.1 17.5H29.7Z" fill="white"/>
<path fill-rule="evenodd" clip-rule="evenodd" d="M24.2 21.5H22.8L22.9 21H22L21.6 21.5H20.2C21.1 20.3 22 19.1 22.9 17.9C23.2 17.5 23.5 17.5 23.8 17.5H25.1L24.2 21.5ZM23 20.4L23.3 19.2L22.4 20.4H23Z" fill="white"/>
<path fill-rule="evenodd" clip-rule="evenodd" d="M17.6 21.5L18.1 19.2L16.4 21.5H15C15.9 20.3 16.8 19.1 17.7 17.9C18 17.5 18.3 17.5 18.6 17.5C19.1 17.5 19.2 17.5 19.6 17.5L19.2 19.3L20.2 17.9C20.5 17.5 20.8 17.5 21.1 17.5C21.6 17.5 21.7 17.5 22.1 17.5L21.8 18.8L20.3 21L20.7 19.2L20.5 19.5L19 21.5H17.6Z" fill="white"/>
<path d="M5.77455 16.4489L3.45678 15.6723L3.61358 15.2043L4.52583 15.51L4.83307 14.593L3.92082 14.2873L4.07762 13.8193L6.39539 14.5959L6.23859 15.0639L5.22516 14.7243L4.91792 15.6413L5.93135 15.9809L5.77455 16.4489Z" fill="black"/>
<path d="M6.88916 13.5846L5.97766 13.1076L4.30824 13.2445L4.57653 12.7319L5.70011 12.6706L5.1046 11.7229L5.36825 11.2191L6.2087 12.6733L7.11724 13.1488L6.88916 13.5846Z" fill="black"/>
<path d="M7.62423 10.7219L7.29574 10.4735L7.93742 9.62501L8.71409 10.2124C8.73152 10.3552 8.71149 10.5282 8.65398 10.7314C8.59626 10.933 8.50672 11.1141 8.38536 11.2745C8.23114 11.4785 8.05415 11.624 7.85438 11.7113C7.65372 11.7978 7.44521 11.8192 7.22884 11.7755C7.01159 11.731 6.80943 11.6381 6.62235 11.4966C6.41932 11.343 6.27108 11.164 6.17764 10.9596C6.08419 10.7551 6.05737 10.539 6.09719 10.3113C6.12701 10.1373 6.21232 9.95726 6.35313 9.77107C6.53618 9.52903 6.72998 9.37874 6.93453 9.3202C7.13886 9.2601 7.34532 9.27827 7.55392 9.3747L7.33137 9.82101C7.21483 9.77608 7.10024 9.77095 6.98761 9.80563C6.87476 9.83874 6.77542 9.91205 6.6896 10.0255C6.55952 10.1975 6.51045 10.3757 6.54239 10.5602C6.57501 10.7437 6.69859 10.9166 6.91315 11.0789C7.14456 11.2539 7.35722 11.3339 7.55114 11.3189C7.74418 11.3032 7.90373 11.212 8.02978 11.0453C8.09214 10.9629 8.13854 10.8684 8.16898 10.7618C8.1992 10.6536 8.21373 10.5524 8.21255 10.4581L7.96518 10.2711L7.62423 10.7219Z" fill="black"/>
<path d="M9.29568 10.1321L7.53914 8.43207L7.8824 8.0774L9.63894 9.77747L9.29568 10.1321Z" fill="black"/>
<path d="M9.94702 9.44542L8.38652 7.56398L9.78156 6.40691L10.0455 6.72519L9.03039 7.56718L9.37634 7.98428L10.3209 7.20084L10.5838 7.51783L9.63926 8.30127L10.064 8.81334L11.1151 7.94155L11.378 8.25855L9.94702 9.44542Z" fill="black"/>
<path d="M11.7033 8.02858L10.4643 5.92152L10.8782 5.6781L12.568 6.57808L11.7406 5.17098L12.1358 4.93855L13.3749 7.04561L12.948 7.29664L11.2906 6.4221L12.0986 7.79615L11.7033 8.02858Z" fill="black"/>
<path d="M13.8268 6.86052L12.8369 4.62562L13.2881 4.42573L14.2781 6.66063L13.8268 6.86052Z" fill="black"/>
<path d="M14.3249 5.74934L14.7679 5.55832C14.8446 5.70299 14.9363 5.79792 15.043 5.8431C15.1508 5.88794 15.2761 5.88746 15.419 5.84166C15.5704 5.79315 15.674 5.72492 15.7299 5.63698C15.7865 5.54764 15.801 5.4601 15.7735 5.37436C15.7559 5.31931 15.7246 5.27799 15.6795 5.2504C15.6352 5.22141 15.5683 5.20552 15.4786 5.20272C15.4175 5.20131 15.2812 5.20764 15.0698 5.22171C14.7978 5.23999 14.5964 5.2199 14.4656 5.16144C14.2817 5.07915 14.1602 4.94591 14.1011 4.76172C14.0631 4.64316 14.061 4.52185 14.0948 4.3978C14.1293 4.27235 14.2009 4.16244 14.3096 4.06808C14.4193 3.97339 14.5636 3.89737 14.7425 3.84004C15.0347 3.7464 15.2748 3.74005 15.463 3.82098C15.6523 3.90157 15.7849 4.04759 15.8608 4.25905L15.3974 4.43032C15.339 4.31715 15.2681 4.24531 15.1848 4.21482C15.1022 4.18292 14.9947 4.18818 14.8624 4.23059C14.7259 4.27435 14.6279 4.33667 14.5686 4.41754C14.5304 4.46947 14.521 4.52561 14.5403 4.58595C14.558 4.64099 14.5964 4.68064 14.6555 4.70488C14.7307 4.73563 14.8913 4.74136 15.1372 4.72207C15.3832 4.70278 15.57 4.70477 15.6977 4.72805C15.8261 4.74993 15.9371 4.80131 16.0308 4.8822C16.1251 4.96168 16.1959 5.075 16.243 5.22214C16.2858 5.35552 16.2888 5.4923 16.252 5.63249C16.2152 5.77268 16.1382 5.89307 16.021 5.99366C15.9035 6.09319 15.7437 6.17535 15.5415 6.24015C15.2472 6.33446 14.9995 6.33915 14.7983 6.2542C14.5968 6.16819 14.439 5.99991 14.3249 5.74934Z" fill="black"/>
<path d="M18.252 4.68573L18.7478 4.76402C18.7153 5.03878 18.6241 5.25329 18.4744 5.40753C18.3256 5.56052 18.1215 5.65667 17.8621 5.69599C17.5412 5.74465 17.2608 5.67528 17.0211 5.4879C16.7811 5.29942 16.6323 5.01505 16.5747 4.63479C16.5137 4.23254 16.5702 3.90467 16.7443 3.65118C16.9182 3.39658 17.1744 3.24363 17.5129 3.1923C17.8085 3.14748 18.0619 3.19845 18.273 3.3452C18.3986 3.43184 18.5035 3.56772 18.5878 3.75281L18.1223 3.94144C18.0747 3.82049 17.9998 3.73066 17.8976 3.67195C17.7965 3.61308 17.6811 3.59347 17.5514 3.61313C17.3722 3.64029 17.2364 3.72667 17.1438 3.87225C17.0522 4.01766 17.0283 4.23434 17.072 4.52229C17.1183 4.82782 17.2062 5.03709 17.3358 5.15012C17.4654 5.26314 17.6181 5.30632 17.7939 5.27966C17.9236 5.26 18.0289 5.20187 18.1098 5.10528C18.1908 5.00869 18.2381 4.86884 18.252 4.68573Z" fill="black"/>
<path d="M19.2596 5.48291L19.3006 3.03877L19.7941 3.04706L19.778 4.00905L20.7449 4.0253L20.7611 3.06332L21.2546 3.07162L21.2135 5.51575L20.72 5.50746L20.738 4.43877L19.771 4.42252L19.753 5.4912L19.2596 5.48291Z" fill="black"/>
<path d="M23.9523 5.11058L24.0557 4.71192L25.0855 4.97893L24.8411 5.92152C24.7159 5.99242 24.5484 6.04029 24.3387 6.06515C24.1304 6.08922 23.9288 6.076 23.7341 6.0255C23.4866 5.96133 23.2842 5.85374 23.127 5.70273C22.9701 5.55064 22.8703 5.3663 22.8277 5.1497C22.7854 4.93202 22.7937 4.70966 22.8526 4.48262C22.9164 4.23621 23.0249 4.03064 23.1778 3.86589C23.3308 3.70114 23.5201 3.59347 23.7456 3.54286C23.9177 3.50365 24.1167 3.51335 24.3427 3.57194C24.6365 3.64811 24.8496 3.76941 24.9821 3.93584C25.116 4.10147 25.1785 4.2991 25.1695 4.52874L24.6719 4.49446C24.6687 4.3696 24.6295 4.26182 24.5542 4.17111C24.4804 4.07961 24.3745 4.016 24.2368 3.98029C24.0281 3.92616 23.8447 3.94923 23.6866 4.04949C23.5296 4.15003 23.4174 4.3305 23.3499 4.5909C23.277 4.87174 23.2848 5.09882 23.373 5.27215C23.4616 5.44439 23.607 5.55674 23.8093 5.6092C23.9093 5.63515 24.0144 5.64173 24.1246 5.62894C24.236 5.61535 24.3351 5.58993 24.4217 5.55267L24.4995 5.25246L23.9523 5.11058Z" fill="black"/>
<path d="M25.1513 6.40556L26.1454 4.17237L27.8013 4.90949L27.6331 5.28728L26.4281 4.75088L26.2077 5.24596L27.3289 5.74506L27.1614 6.12132L26.0402 5.62222L25.7697 6.23003L27.0173 6.78541L26.8498 7.16167L25.1513 6.40556Z" fill="black"/>
<path d="M27.6574 7.65501L28.7448 5.93974L28.1322 5.55141L28.3536 5.20216L29.9942 6.24217L29.7728 6.59142L29.1616 6.20398L28.0743 7.91926L27.6574 7.65501Z" fill="black"/>
<path d="M28.918 8.48659L30.5144 6.6357L31.8868 7.81941L31.6168 8.13252L30.6181 7.27115L30.2642 7.68147L31.1934 8.48296L30.9244 8.7948L29.9952 7.99332L29.5607 8.49708L30.5947 9.38894L30.3258 9.70079L28.918 8.48659Z" fill="black"/>
<path d="M31.1265 9.37567L31.4732 9.71124C31.3692 9.83768 31.3168 9.95884 31.3161 10.0747C31.3161 10.1914 31.3648 10.307 31.462 10.4213C31.565 10.5424 31.6678 10.6118 31.7705 10.6295C31.8747 10.6474 31.9611 10.6272 32.0297 10.5689C32.0737 10.5314 32.0998 10.4866 32.108 10.4344C32.1177 10.3824 32.1066 10.3145 32.0748 10.2306C32.0526 10.1736 31.9943 10.0503 31.9 9.86047C31.7786 9.61644 31.7197 9.4228 31.7234 9.27957C31.7286 9.07811 31.8049 8.91472 31.9523 8.78941C32.0471 8.70874 32.1583 8.66016 32.2858 8.64365C32.4149 8.62726 32.5439 8.65109 32.6727 8.71513C32.8024 8.78002 32.928 8.88402 33.0497 9.02713C33.2485 9.26085 33.3467 9.48013 33.3444 9.68498C33.3427 9.89068 33.2589 10.0692 33.0929 10.2206L32.7566 9.8587C32.8386 9.76123 32.8777 9.66817 32.8738 9.57954C32.8715 9.49102 32.8253 9.39384 32.7353 9.28799C32.6424 9.17875 32.5472 9.11231 32.4498 9.08866C32.3871 9.07335 32.3317 9.08622 32.2834 9.12727C32.2394 9.16472 32.2175 9.2154 32.2179 9.27931C32.2184 9.36058 32.2749 9.51103 32.3872 9.73067C32.4996 9.95032 32.5696 10.1236 32.5972 10.2504C32.6264 10.3773 32.6216 10.4996 32.583 10.6171C32.5458 10.7348 32.4684 10.8437 32.3507 10.9438C32.244 11.0345 32.1189 11.0899 31.9753 11.1098C31.8318 11.1298 31.691 11.105 31.5531 11.0355C31.4161 10.9653 31.2787 10.8493 31.1412 10.6875C30.941 10.4521 30.8414 10.2252 30.8425 10.0069C30.8444 9.7878 30.9391 9.57739 31.1265 9.37567Z" fill="black"/>
<path d="M32.3164 12.1922L34.0402 11.1185L33.6568 10.5029L34.0078 10.2842L35.0348 11.933L34.6838 12.1517L34.3012 11.5374L32.5774 12.6112L32.3164 12.1922Z" fill="black"/>
<path d="M33.094 13.4921L35.3355 12.5171L36.0585 14.1791L35.6793 14.344L35.1532 13.1346L34.6562 13.3508L35.1458 14.4761L34.7681 14.6404L34.2786 13.5151L33.6685 13.7804L34.2132 15.0327L33.8356 15.197L33.094 13.4921Z" fill="black"/>
<path d="M34.0973 16.1019L36.057 15.569L35.8667 14.869L36.2658 14.7605L36.7755 16.635L36.3764 16.7436L36.1866 16.0452L34.2268 16.5781L34.0973 16.1019Z" fill="black"/>
<path d="M11.099 33.5636L12.0525 30.124L12.6542 30.5479L11.9169 33.0713L14.0224 31.5117L14.6109 31.9263L11.6913 33.9808L11.099 33.5636Z" fill="black"/>
<path d="M14.525 31.8554L15.6758 32.3182C15.9353 32.4225 16.1251 32.5219 16.2453 32.6164C16.4066 32.7438 16.5248 32.9026 16.5999 33.0926C16.6751 33.2826 16.7065 33.4913 16.6941 33.7186C16.6824 33.9445 16.6177 34.2035 16.5003 34.4957C16.397 34.7523 16.2762 34.9607 16.1377 35.1208C15.9684 35.3164 15.7832 35.4552 15.5821 35.5375C15.4302 35.5999 15.2493 35.6236 15.0396 35.6084C14.883 35.5965 14.6884 35.5438 14.4558 35.4502L13.271 34.9738L14.525 31.8554ZM14.9425 32.6361L14.1119 34.7016L14.582 34.8906C14.7578 34.9613 14.8887 35.0024 14.9747 35.014C15.0871 35.0295 15.1889 35.0202 15.28 34.986C15.3726 34.9524 15.4681 34.8747 15.5666 34.7528C15.6656 34.6295 15.7635 34.4473 15.8605 34.2062C15.9574 33.9652 16.0106 33.7716 16.0199 33.6254C16.0293 33.4792 16.0102 33.3546 15.9627 33.2515C15.9152 33.1484 15.8377 33.0604 15.7303 32.9875C15.6504 32.9323 15.4821 32.8531 15.2254 32.7499L14.9425 32.6361Z" fill="black"/>
<path d="M16.6699 36.1632L17.3673 32.8754L18.0311 33.0163L17.3337 36.3041L16.6699 36.1632Z" fill="black"/>
<path d="M21.542 33.9561L20.9216 34.0501C20.9011 33.9225 20.8576 33.8294 20.791 33.7709C20.7243 33.7124 20.6399 33.6853 20.5375 33.6894C20.4016 33.695 20.2888 33.7607 20.1991 33.8868C20.1109 34.0127 20.0624 34.2694 20.0537 34.6568C20.2064 34.4609 20.4018 34.3581 20.6401 34.3484C20.9089 34.3375 21.1429 34.4304 21.3421 34.6273C21.5428 34.8242 21.6498 35.0844 21.663 35.4082C21.677 35.7518 21.5874 36.0316 21.3942 36.2475C21.2011 36.4634 20.9465 36.5778 20.6303 36.5907C20.2913 36.6045 20.0072 36.4845 19.7781 36.2307C19.549 35.9753 19.4222 35.5476 19.3978 34.9474C19.3728 34.3319 19.4685 33.8836 19.685 33.6025C19.9015 33.3214 20.1915 33.1734 20.5549 33.1587C20.81 33.1483 21.0237 33.2115 21.196 33.3483C21.3698 33.4835 21.4851 33.6861 21.542 33.9561ZM20.1398 35.4197C20.1483 35.6289 20.203 35.7889 20.3039 35.8995C20.4047 36.0086 20.517 36.0606 20.6407 36.0556C20.7598 36.0507 20.8572 36.0001 20.9328 35.9037C21.0084 35.8073 21.0419 35.653 21.0333 35.4407C21.0244 35.2223 20.9751 35.0645 20.8855 34.9672C20.7958 34.8683 20.6868 34.8215 20.5586 34.8267C20.4349 34.8317 20.3322 34.8849 20.2507 34.9861C20.1691 35.0858 20.1321 35.2303 20.1398 35.4197Z" fill="black"/>
<path d="M22.5922 32.8579C22.9083 32.7799 23.1832 32.8316 23.4169 33.0132C23.6951 33.2279 23.9105 33.6446 24.0633 34.2634C24.2157 34.8806 24.2184 35.3507 24.0714 35.6735C23.9498 35.9397 23.731 36.1118 23.4149 36.1898C23.0974 36.2682 22.8114 36.2097 22.5569 36.0144C22.3021 35.8175 22.0974 35.406 21.9427 34.7799C21.7911 34.1656 21.7887 33.697 21.9357 33.3742C22.0573 33.108 22.2762 32.9359 22.5922 32.8579ZM22.7203 33.3765C22.6446 33.3952 22.5831 33.4363 22.5359 33.4999C22.4882 33.5621 22.4635 33.6595 22.4616 33.7922C22.4585 33.9646 22.5042 34.2422 22.5988 34.625C22.6933 35.0078 22.7776 35.2664 22.8517 35.4008C22.9255 35.5337 22.9971 35.6168 23.0667 35.65C23.1378 35.6828 23.2112 35.6899 23.2869 35.6712C23.3625 35.6525 23.4242 35.6121 23.4718 35.55C23.5191 35.4864 23.5436 35.3882 23.5455 35.2555C23.549 35.0846 23.5035 34.8078 23.4089 34.4249C23.3144 34.0421 23.2303 33.7842 23.1565 33.6513C23.0824 33.5169 23.0098 33.4333 22.9387 33.4005C22.8688 33.3658 22.7959 33.3578 22.7203 33.3765Z" fill="black"/>
<path d="M26.8386 34.1747L27.0925 34.7165L25.0476 35.6747C24.9738 35.4595 24.9494 35.2346 24.9745 35C24.999 34.7641 25.1035 34.418 25.2881 33.9619C25.4363 33.5937 25.5197 33.352 25.5384 33.237C25.5622 33.0789 25.5466 32.9411 25.4915 32.8235C25.4305 32.6934 25.3485 32.6102 25.2455 32.5741C25.1432 32.536 25.0305 32.5457 24.9073 32.6035C24.7855 32.6605 24.7058 32.7426 24.6682 32.8497C24.6307 32.9568 24.6462 33.098 24.7149 33.2734L24.1064 33.4877C23.9905 33.1504 23.9912 32.869 24.1084 32.6436C24.2256 32.4182 24.4212 32.2413 24.6952 32.1129C24.9955 31.9722 25.2695 31.9426 25.5169 32.0241C25.7644 32.1056 25.9446 32.2668 26.0575 32.5076C26.1217 32.6446 26.158 32.7871 26.1666 32.935C26.1758 33.0809 26.159 33.2466 26.116 33.4322C26.0875 33.5552 26.0208 33.7443 25.9159 33.9994C25.8109 34.2545 25.7465 34.4214 25.7226 34.5001C25.7001 34.5781 25.686 34.6506 25.6802 34.7175L26.8386 34.1747Z" fill="black"/>
<path d="M29.1033 32.6042L29.4544 33.0887L27.6259 34.4138C27.513 34.2163 27.4468 34 27.4274 33.7649C27.4071 33.5286 27.4448 33.169 27.5405 32.6863C27.6169 32.2969 27.6534 32.0439 27.6501 31.9273C27.6439 31.7676 27.6026 31.6352 27.5264 31.53C27.4421 31.4137 27.346 31.3474 27.238 31.3313C27.1304 31.313 27.0215 31.3438 26.9114 31.4236C26.8024 31.5026 26.7396 31.5981 26.7228 31.7104C26.7059 31.8226 26.7477 31.9584 26.8482 32.1178L26.2907 32.4425C26.1136 32.133 26.0614 31.8565 26.1342 31.6131C26.2069 31.3697 26.3658 31.1593 26.6109 30.9817C26.8794 30.787 27.1429 30.7065 27.4013 30.7401C27.6597 30.7737 27.8669 30.8981 28.023 31.1135C28.1118 31.236 28.1743 31.3691 28.2104 31.5128C28.2469 31.6543 28.2615 31.8203 28.2541 32.0106C28.2493 32.1368 28.2193 32.335 28.1641 32.6053C28.1089 32.8756 28.077 33.0516 28.0683 33.1334C28.0609 33.2143 28.0606 33.2881 28.0675 33.3549L29.1033 32.6042Z" fill="black"/>
</svg>
