<svg width="40" height="40" viewBox="0 0 40 40" fill="none" xmlns="http://www.w3.org/2000/svg">
<path d="M21.6 9.3999V20.3999V20.5999L21.7 20.7999L26.2 30.4999C26.3 30.6999 26.2 30.9999 26.2 30.9999C26.2 31.0999 26 31.2999 25.7 31.2999H14.4C14.1 31.2999 14 31.0999 13.9 30.9999C13.9 30.8999 13.7 30.6999 13.9 30.4999L18.7 20.7999L18.8 20.5999V20.3999V9.3999H21.6ZM22.6 8.3999H17.8V20.3999L13 30.0999C12.5 31.0999 13.2 32.3999 14.4 32.3999H25.6C26.7 32.3999 27.5 31.1999 27 30.1999L22.5 20.4999V8.3999H22.6Z" fill="#1D71B8"/>
<path d="M20 1.7001C30.1 1.7001 38.3 9.9001 38.3 20.0001C38.3 30.1001 30.1 38.3001 20 38.3001C9.90001 38.3001 1.70001 30.1001 1.70001 20.0001C1.70001 9.9001 9.90001 1.7001 20 1.7001ZM20 0.100098C9.00001 0.100098 0.100006 9.0001 0.100006 20.0001C0.100006 31.0001 9.00001 39.9001 20 39.9001C31 39.9001 39.9 31.0001 39.9 20.0001C39.9 9.0001 31 0.100098 20 0.100098Z" fill="#1D71B8"/>
</svg>
