<svg width="23" height="23" viewBox="0 0 23 23" fill="none" xmlns="http://www.w3.org/2000/svg">
<path d="M15.5977 13.5309L12.3908 11.1258V6.22649C12.3908 5.73388 11.9926 5.33569 11.5 5.33569C11.0074 5.33569 10.6092 5.73388 10.6092 6.22649V11.5712C10.6092 11.8518 10.7411 12.1164 10.9655 12.2838L14.5287 14.9562C14.689 15.0765 14.8761 15.1344 15.0622 15.1344C15.3339 15.1344 15.6012 15.0123 15.7758 14.7771C16.0716 14.3843 15.9914 13.8257 15.5977 13.5309Z" fill="#232323"/>
<path d="M11.5 0C5.15851 0 0 5.15851 0 11.5C0 17.8415 5.15851 23 11.5 23C17.8415 23 23 17.8415 23 11.5C23 5.15851 17.8415 0 11.5 0ZM11.5 21.2184C6.14194 21.2184 1.78156 16.8581 1.78156 11.5C1.78156 6.14194 6.14194 1.78156 11.5 1.78156C16.859 1.78156 21.2184 6.14194 21.2184 11.5C21.2184 16.8581 16.8581 21.2184 11.5 21.2184Z" fill="#232323"/>
</svg>
