<svg width="62" height="62" viewBox="0 0 62 62" fill="none" xmlns="http://www.w3.org/2000/svg">
<path d="M54.1565 8.2168H48.9276V2.98798C48.9277 1.3445 47.583 0 45.9403 0H7.84333C6.19997 0 4.85547 1.3445 4.85547 2.98798V50.7951C4.85547 52.4385 6.19997 53.7831 7.84345 53.7831H13.0724V59.012C13.0724 60.6554 14.4163 62 16.0604 62H41.4572C43.0998 62 45.4245 61.0782 46.6204 59.9526L54.9672 52.0958C56.1646 50.9701 57.1432 48.7037 57.1432 47.0603L57.1446 11.205C57.1445 9.56142 55.7999 8.2168 54.1565 8.2168ZM13.0721 11.2049V51.5421H7.84333C7.43852 51.5421 7.09643 51.2 7.09643 50.7952V2.98798C7.09643 2.58317 7.43852 2.24108 7.84333 2.24108H45.9404C46.3445 2.24108 46.6874 2.58317 46.6874 2.98798V8.21692H16.0601C14.416 8.21692 13.0721 9.56142 13.0721 11.2049ZM53.4313 50.4641L45.0844 58.3203C44.9135 58.481 44.6908 58.6386 44.4449 58.7886V51.9156C44.4449 51.4024 44.6519 50.9407 44.9933 50.5971C45.3376 50.2557 45.7992 50.0482 46.3124 50.0482H53.7861C53.6702 50.2056 53.5515 50.3506 53.4313 50.4641ZM54.902 47.0601C54.902 47.2819 54.8615 47.5389 54.8004 47.807H46.3123C44.0453 47.8115 42.2085 49.6483 42.2039 51.9155V59.6683C41.9372 59.7222 41.6803 59.7587 41.457 59.7587H16.0601V59.7588C15.6545 59.7588 15.3132 59.4167 15.3132 59.0119V11.2048C15.3132 10.8 15.6546 10.4579 16.0601 10.4579H54.1564C54.5612 10.4579 54.9033 10.8 54.9033 11.2048L54.902 47.0601Z" fill="#0B8149"/>
<path d="M45.9404 18.6746H24.2778C23.6586 18.6746 23.1573 19.1758 23.1573 19.795C23.1573 20.4143 23.6587 20.9155 24.2778 20.9155H45.9404C46.5589 20.9155 47.0608 20.4143 47.0608 19.795C47.0608 19.1758 46.5589 18.6746 45.9404 18.6746Z" fill="#0B8149"/>
<path d="M45.9404 33.6144H24.2778C23.6586 33.6144 23.1573 34.1156 23.1573 34.7349C23.1573 35.3541 23.6587 35.8553 24.2778 35.8553H45.9404C46.5589 35.8553 47.0608 35.3541 47.0608 34.7349C47.0608 34.1155 46.5589 33.6144 45.9404 33.6144Z" fill="#0B8149"/>
<path d="M36.2296 41.0842H24.2779C23.6586 41.0842 23.1574 41.5854 23.1574 42.2047C23.1574 42.824 23.6586 43.3252 24.2779 43.3252H36.2296C36.8481 43.3252 37.3493 42.824 37.3493 42.2047C37.3493 41.5854 36.8481 41.0842 36.2296 41.0842Z" fill="#0B8149"/>
<path d="M45.9404 26.1444H24.2778C23.6586 26.1444 23.1573 26.6456 23.1573 27.2649C23.1573 27.8842 23.6587 28.3854 24.2778 28.3854H45.9404C46.5589 28.3854 47.0608 27.8842 47.0608 27.2649C47.0608 26.6456 46.5589 26.1444 45.9404 26.1444Z" fill="#0B8149"/>
</svg>
