<svg width="23" height="23" viewBox="0 0 23 23" fill="none" xmlns="http://www.w3.org/2000/svg">
<g clip-path="url(#clip0)">
<path d="M20.8437 2.875H2.15627C0.967235 2.875 7.62939e-06 3.84223 7.62939e-06 5.03127V17.9688C7.62939e-06 19.1578 0.967235 20.125 2.15627 20.125H20.8437C22.0328 20.125 23 19.1578 23 17.9688V5.03127C23 3.84223 22.0328 2.875 20.8437 2.875ZM20.8437 4.3125C20.9414 4.3125 21.0343 4.33276 21.1192 4.36814L11.5 12.7052L1.88074 4.36814C1.96567 4.3328 2.05857 4.3125 2.15622 4.3125H20.8437ZM20.8437 18.6875H2.15627C1.7597 18.6875 1.4375 18.3653 1.4375 17.9687V5.88687L11.029 14.1995C11.1645 14.3167 11.3323 14.375 11.5 14.375C11.6678 14.375 11.8355 14.3168 11.971 14.1995L21.5625 5.88687V17.9688C21.5625 18.3653 21.2403 18.6875 20.8437 18.6875Z" fill="#232323"/>
</g>
<defs>
<clipPath id="clip0">
<rect width="23" height="23" fill="white"/>
</clipPath>
</defs>
</svg>
