<svg width="23" height="23" viewBox="0 0 23 23" fill="none" xmlns="http://www.w3.org/2000/svg">
<g clip-path="url(#clip0)">
<path d="M11.5001 23C10.9981 23 10.5485 22.7397 10.2976 22.3035C10.2949 22.2989 10.2923 22.2943 10.2898 22.2897L4.58641 11.8505C3.22501 9.3586 3.26405 6.4009 4.69085 3.93864C6.08671 1.52975 8.56604 0.0580615 11.3231 0.00181934C11.4409 -0.000606445 11.5593 -0.000606445 11.677 0.00181934C14.434 0.0580615 16.9134 1.52975 18.3093 3.93864C19.7361 6.4009 19.7751 9.35855 18.4137 11.8505L12.7104 22.2897C12.7078 22.2943 12.7052 22.2989 12.7026 22.3035C12.4517 22.7396 12.0022 23 11.5001 23ZM11.5001 1.43752C11.4507 1.43752 11.4015 1.43802 11.3523 1.439C9.10178 1.48492 7.07643 2.68878 5.93456 4.65936C4.76179 6.68332 4.72935 9.11391 5.84786 11.1612L11.5001 21.5067L17.1522 11.1612C18.2707 9.11391 18.2383 6.68332 17.0655 4.65936C15.9236 2.68882 13.8983 1.48492 11.6477 1.439C11.5987 1.43802 11.5494 1.43752 11.5001 1.43752Z" fill="#232323"/>
<path d="M11.5 10.4219C9.71656 10.4219 8.26562 8.97094 8.26562 7.1875C8.26562 5.40406 9.71656 3.95312 11.5 3.95312C13.2834 3.95312 14.7344 5.40406 14.7344 7.1875C14.7344 8.97094 13.2835 10.4219 11.5 10.4219ZM11.5 5.39063C10.5092 5.39063 9.70312 6.1967 9.70312 7.1875C9.70312 8.1783 10.5092 8.98438 11.5 8.98438C12.4908 8.98438 13.2969 8.1783 13.2969 7.1875C13.2969 6.1967 12.4908 5.39063 11.5 5.39063Z" fill="#232323"/>
</g>
<defs>
<clipPath id="clip0">
<rect width="23" height="23" fill="white"/>
</clipPath>
</defs>
</svg>
