<svg width="62" height="62" viewBox="0 0 62 62" fill="none" xmlns="http://www.w3.org/2000/svg">
<path d="M34.2979 26.3203C33.8581 25.9434 33.3556 25.6921 32.7903 25.5036C32.2249 25.378 31.5967 25.3152 30.8429 25.3152H27.9534C27.4508 25.3152 27.1368 25.4408 26.8855 25.6293C26.697 25.8177 26.5714 26.1946 26.5714 26.6972V34.8005C26.5714 35.1774 26.5714 35.4287 26.697 35.6799C26.7599 35.9312 26.8855 36.0568 27.0739 36.1825C27.2624 36.3081 27.5765 36.3709 28.0162 36.3709H30.9058C31.4083 36.3709 31.848 36.3081 32.2877 36.2453C32.6646 36.1825 33.0415 36.0568 33.4184 35.9312C33.7953 35.7427 34.1094 35.5543 34.3607 35.303C34.7376 34.9261 35.0517 34.5492 35.3029 34.1095C35.5542 33.6698 35.7426 33.1673 35.8683 32.6019C35.9939 32.0366 36.0567 31.4712 36.0567 30.7802C36.0567 28.8329 35.4914 27.3253 34.2979 26.3203ZM32.6646 34.1095C32.4762 34.2351 32.2877 34.3608 32.0993 34.4236C31.848 34.4864 31.6596 34.5492 31.4711 34.5492C31.2827 34.5492 30.9686 34.5492 30.5917 34.5492H28.8956V27.0112H30.4032C31.0942 27.0112 31.6596 27.0741 32.1621 27.2625C32.6646 27.3881 33.0415 27.765 33.3556 28.3304C33.6697 28.8957 33.8581 29.7123 33.8581 30.7802C33.7953 32.4135 33.4184 33.4813 32.6646 34.1095Z" fill="#0B8149"/>
<path d="M54.2735 12.3749L54.2107 12.3121V12.2492L42.2755 0.314083L42.2127 0.251266C42.2127 0.251266 42.1499 0.251266 42.1499 0.18845C42.1499 0.18845 42.0871 0.18845 42.0871 0.125633C41.8986 0 41.7102 0 41.4589 0H11.8723C10.7416 0 9.67372 0.439716 8.91992 1.19352L8.8571 1.25633C8.1033 2.01013 7.60077 3.14083 7.60077 4.27153V57.7285C7.60077 58.922 8.1033 59.9899 8.8571 60.7437C9.6109 61.4975 10.7416 62 11.8723 62H50.1276C51.3211 62 52.389 61.4975 53.1428 60.7437C53.8966 59.9899 54.3991 58.8592 54.3991 57.7285V13.003C54.3991 12.7518 54.3363 12.5633 54.2735 12.3749ZM42.6524 4.5228L49.7507 11.6211H44.5369C44.0344 11.6211 43.5319 11.4326 43.2178 11.0557C42.9037 10.7416 42.6524 10.2391 42.6524 9.73658V4.5228ZM51.698 57.7285C51.698 58.1682 51.5096 58.5451 51.1955 58.8592C50.8814 59.1733 50.5045 59.3617 50.0648 59.3617H11.8723C11.4326 59.3617 11.0557 59.1733 10.7416 58.922C10.4275 58.6079 10.3019 58.231 10.3019 57.7913V4.20871C10.3019 3.769 10.4903 3.3921 10.8044 3.07801L10.8672 3.0152C11.1813 2.76393 11.5582 2.57548 11.9351 2.57548H40.077V9.67376C40.077 10.9301 40.5795 12.0608 41.4589 12.9402C42.2755 13.7568 43.4691 14.2594 44.7254 14.2594H51.698V57.7285Z" fill="#0B8149"/>
<path d="M23.6818 26.1945C23.3677 25.8805 22.9908 25.692 22.4883 25.5664C22.0486 25.4407 21.3576 25.3779 20.541 25.3779H17.6514C17.1489 25.3779 16.772 25.5036 16.5836 25.692C16.3323 25.8805 16.2695 26.2574 16.2695 26.7599V35.303C16.2695 35.7427 16.3951 36.0568 16.5836 36.308C16.772 36.5593 17.0861 36.6221 17.4002 36.6221C17.7143 36.6221 17.9655 36.4965 18.2168 36.2452C18.4052 35.9939 18.5309 35.6799 18.5309 35.2401V32.0993H20.6038C21.9858 32.0993 22.9908 31.7852 23.6818 31.2199C24.3728 30.6545 24.7497 29.7751 24.7497 28.6444C24.7497 28.1419 24.6869 27.6393 24.4984 27.1996C24.2472 26.8227 23.9959 26.4458 23.6818 26.1945ZM22.1742 29.7123C21.9858 29.9635 21.7345 30.152 21.3576 30.2776C20.9807 30.4033 20.541 30.4661 20.0385 30.4661H18.5309V27.074H20.0385C21.0435 27.074 21.6717 27.2624 22.0486 27.5765C22.3627 27.8906 22.4883 28.2675 22.4883 28.77C22.4255 29.1469 22.3627 29.461 22.1742 29.7123Z" fill="#0B8149"/>
<path d="M39.386 25.2522C39.0091 25.315 38.7578 25.3778 38.5694 25.5035C38.3809 25.5663 38.1925 25.7547 38.1297 25.9432C38.004 26.1316 38.004 26.3829 38.004 26.7598V35.24C38.004 35.6798 38.1297 36.0567 38.3181 36.2451C38.5066 36.4964 38.8206 36.5592 39.1347 36.5592C39.4488 36.5592 39.7001 36.4336 39.9513 36.2451C40.1398 35.9939 40.2654 35.6798 40.2654 35.24V31.5967H43.9716C44.2857 31.5967 44.537 31.5339 44.7254 31.3454C44.9139 31.2198 44.9767 30.9685 44.9767 30.7172C44.9767 30.466 44.9139 30.2775 44.7254 30.0891C44.537 29.9634 44.2857 29.8378 43.9716 29.8378H40.2654V27.0111H44.6626C45.0395 27.0111 45.2908 26.9482 45.4792 26.7598C45.6677 26.5713 45.7305 26.3829 45.7305 26.1316C45.7305 25.8804 45.6677 25.6919 45.4792 25.5035C45.2908 25.315 45.0395 25.2522 44.6626 25.2522H39.386Z" fill="#0B8149"/>
</svg>
