<svg width="23" height="23" viewBox="0 0 23 23" fill="none" xmlns="http://www.w3.org/2000/svg">
<g clip-path="url(#clip0)">
<path d="M18.1773 14.2476C17.7064 13.7573 17.1385 13.4952 16.5365 13.4952C15.9394 13.4952 15.3666 13.7525 14.8763 14.2428L13.3424 15.7719C13.2162 15.7039 13.09 15.6408 12.9686 15.5777C12.7939 15.4903 12.6288 15.4078 12.488 15.3204C11.0512 14.4078 9.74535 13.2185 8.49293 11.6797C7.88614 10.9127 7.47838 10.2671 7.18227 9.61177C7.58032 9.2477 7.94925 8.86906 8.30847 8.50499C8.44439 8.36907 8.58031 8.22829 8.71623 8.09237C9.73564 7.07297 9.73564 5.7526 8.71623 4.73319L7.39101 3.40797C7.24052 3.25748 7.08518 3.10214 6.93955 2.94681C6.6483 2.64584 6.34247 2.33516 6.02695 2.04391C5.55608 1.57789 4.99298 1.33032 4.40075 1.33032C3.80853 1.33032 3.23572 1.57789 2.75029 2.04391C2.74543 2.04876 2.74543 2.04876 2.74058 2.05361L1.09011 3.71864C0.468762 4.33999 0.114398 5.09727 0.0367289 5.97589C-0.0797745 7.39335 0.337696 8.71372 0.65808 9.57779C1.44448 11.6991 2.61922 13.6651 4.37163 15.7719C6.49781 18.3107 9.05603 20.3155 11.9783 21.7281C13.0948 22.2572 14.5851 22.8834 16.2501 22.9902C16.3521 22.9951 16.4589 23 16.5559 23C17.6773 23 18.619 22.597 19.3569 21.7961C19.3617 21.7864 19.3714 21.7815 19.3763 21.7718C19.6287 21.466 19.92 21.1893 20.2258 20.8932C20.4345 20.6942 20.6481 20.4854 20.8569 20.267C21.3374 19.767 21.5899 19.1845 21.5899 18.5874C21.5899 17.9855 21.3326 17.4078 20.8423 16.9224L18.1773 14.2476ZM19.9151 19.3592C19.9103 19.3592 19.9103 19.3641 19.9151 19.3592C19.7258 19.5631 19.5316 19.7476 19.3229 19.9514C19.0074 20.2524 18.687 20.5679 18.386 20.9223C17.8957 21.4466 17.3181 21.6941 16.5608 21.6941C16.488 21.6941 16.4103 21.6941 16.3375 21.6893C14.8958 21.5971 13.556 21.034 12.5511 20.5534C9.8036 19.2233 7.39101 17.335 5.38618 14.9418C3.73086 12.9467 2.62408 11.102 1.89107 9.12149C1.43962 7.91276 1.27458 6.97103 1.34739 6.08269C1.39594 5.51474 1.61438 5.04387 2.01729 4.64096L3.67261 2.98564C3.91047 2.76234 4.16289 2.64099 4.41046 2.64099C4.71628 2.64099 4.96385 2.82545 5.11919 2.98079C5.12404 2.98564 5.1289 2.9905 5.13375 2.99535C5.42986 3.27205 5.71141 3.55845 6.00753 3.86427C6.15801 4.01961 6.31335 4.17495 6.46869 4.33514L7.79391 5.66036C8.30847 6.17492 8.30847 6.65064 7.79391 7.1652C7.65314 7.30597 7.51722 7.44675 7.37644 7.58267C6.96868 8.00014 6.58034 8.38848 6.15801 8.76712C6.1483 8.77683 6.13859 8.78168 6.13374 8.79139C5.71627 9.20886 5.79394 9.61662 5.88132 9.89332C5.88617 9.90788 5.89102 9.92245 5.89588 9.93701C6.24053 10.7719 6.72597 11.5583 7.46382 12.4952L7.46867 12.5001C8.80846 14.1505 10.2211 15.4369 11.7793 16.4224C11.9783 16.5486 12.1822 16.6505 12.3764 16.7476C12.5511 16.835 12.7162 16.9175 12.857 17.0049C12.8764 17.0146 12.8958 17.0292 12.9152 17.0389C13.0803 17.1214 13.2356 17.1602 13.3958 17.1602C13.7987 17.1602 14.0511 16.9078 14.1336 16.8253L15.7938 15.1651C15.9589 15.0001 16.221 14.801 16.5268 14.801C16.8278 14.801 17.0753 14.9903 17.2258 15.1554C17.2307 15.1602 17.2307 15.1602 17.2355 15.1651L19.9103 17.8398C20.4103 18.335 20.4103 18.8447 19.9151 19.3592Z" fill="#232323"/>
<path d="M12.4298 5.47116C13.7016 5.68475 14.8569 6.28668 15.7793 7.209C16.7016 8.13132 17.2987 9.28665 17.5171 10.5585C17.5705 10.8789 17.8472 11.1022 18.1627 11.1022C18.2016 11.1022 18.2356 11.0973 18.2744 11.0924C18.6336 11.0342 18.8715 10.6944 18.8132 10.3352C18.5511 8.79636 17.8229 7.39347 16.7113 6.28183C15.5997 5.17019 14.1968 4.44205 12.6579 4.17992C12.2987 4.12166 11.9638 4.35953 11.9007 4.71389C11.8376 5.06825 12.0706 5.41291 12.4298 5.47116Z" fill="#232323"/>
<path d="M22.9733 10.1458C22.5412 7.61184 21.3471 5.30604 19.5122 3.47111C17.6772 1.63618 15.3714 0.442024 12.8375 0.00999088C12.4831 -0.0531151 12.1482 0.1896 12.0851 0.543965C12.0268 0.903183 12.2647 1.23813 12.6239 1.30124C14.886 1.68473 16.9491 2.75753 18.5898 4.39343C20.2306 6.03419 21.2985 8.09727 21.682 10.3594C21.7354 10.6798 22.0121 10.9031 22.3277 10.9031C22.3665 10.9031 22.4005 10.8982 22.4393 10.8933C22.7937 10.8399 23.0364 10.5001 22.9733 10.1458Z" fill="#232323"/>
</g>
<defs>
<clipPath id="clip0">
<rect width="23" height="23" fill="white"/>
</clipPath>
</defs>
</svg>
