<svg width="16" height="16" viewBox="0 0 16 16" fill="none" xmlns="http://www.w3.org/2000/svg">
<g clip-path="url(#clip0)">
<path d="M13.6594 2.34085C10.5379 -0.779957 5.46155 -0.779957 2.34009 2.34085C-0.780029 5.46166 -0.780029 10.5393 2.34009 13.6602C3.90082 15.2202 5.95043 15.9999 8.00008 15.9999C10.0497 15.9999 12.0987 15.2202 13.6594 13.6602C16.7802 10.5394 16.7802 5.46166 13.6594 2.34085ZM11.3009 10.3586C11.5617 10.6194 11.5617 11.0409 11.3009 11.3017C11.1709 11.4318 11.0001 11.4971 10.8294 11.4971C10.6586 11.4971 10.4879 11.4318 10.3578 11.3017L8.00005 8.94326L5.64294 11.301C5.51223 11.4311 5.34146 11.4965 5.17138 11.4965C5.00064 11.4965 4.82988 11.4311 4.69982 11.301C4.43904 11.0402 4.43904 10.618 4.69982 10.3579L7.05692 8.00016L4.69916 5.6424C4.43838 5.38162 4.43838 4.95942 4.69916 4.6993C4.95928 4.43852 5.38148 4.43852 5.64226 4.6993L8.00002 7.05706L10.3578 4.6993C10.6186 4.43852 11.0401 4.43852 11.3009 4.6993C11.5617 4.95942 11.5617 5.38162 11.3009 5.6424L8.94311 8.00016L11.3009 10.3586Z" fill="#A30707"/>
</g>
<defs>
<clipPath id="clip0">
<rect width="16" height="16" fill="white"/>
</clipPath>
</defs>
</svg>
