<svg width="30" height="30" viewBox="0 0 30 30" fill="none" xmlns="http://www.w3.org/2000/svg">
<g clip-path="url(#clip0)">
<path d="M23.7891 3.51562H20.907L20.2025 1.40227C19.9229 0.563496 19.141 0 18.2569 0H11.7431C10.8589 0 10.0771 0.563555 9.79752 1.40232L9.09305 3.51562H6.21094C4.75705 3.51562 3.57422 4.69846 3.57422 6.15234V22.5586C3.57422 24.0125 4.75705 25.1953 6.21094 25.1953H6.54656L4.78025 28.7279C4.56316 29.162 4.73918 29.69 5.1733 29.907C5.29945 29.9701 5.43357 30 5.56564 30C5.88803 30 6.19846 29.8219 6.35244 29.514L6.75404 28.7109H23.246L23.6475 29.514C23.8015 29.822 24.1119 30 24.4343 30C24.5664 30 24.7005 29.9701 24.8266 29.907C25.2608 29.69 25.4368 29.162 25.2197 28.7279L23.4534 25.1953H23.7891C25.2429 25.1953 26.4258 24.0125 26.4258 22.5586V6.15234C26.4258 4.69846 25.2429 3.51562 23.7891 3.51562ZM11.4652 1.95814C11.5051 1.83832 11.6168 1.75781 11.7431 1.75781H18.2569C18.3832 1.75781 18.4949 1.83832 18.5348 1.95814L19.054 3.51562H10.946L11.4652 1.95814ZM6.21094 5.27344H23.7891C24.2737 5.27344 24.668 5.66772 24.668 6.15234V7.03125H5.33203V6.15234C5.33203 5.66772 5.72631 5.27344 6.21094 5.27344ZM24.668 8.78906V16.4062H5.33203V8.78906H24.668ZM22.3671 26.9531H7.63295L8.51186 25.1953H21.4881L22.3671 26.9531ZM23.7891 23.4375H6.21094C5.72631 23.4375 5.33203 23.0432 5.33203 22.5586V18.1641H24.668V22.5586C24.668 23.0432 24.2737 23.4375 23.7891 23.4375Z" fill="#0B8149"/>
<path d="M17.9297 19.9219H12.0703C11.5849 19.9219 11.1914 20.3154 11.1914 20.8008C11.1914 21.2862 11.5849 21.6797 12.0703 21.6797H17.9297C18.4151 21.6797 18.8086 21.2862 18.8086 20.8008C18.8086 20.3154 18.4151 19.9219 17.9297 19.9219Z" fill="#0B8149"/>
<path d="M22.0312 21.6797C22.5167 21.6797 22.9102 21.2862 22.9102 20.8008C22.9102 20.3154 22.5167 19.9219 22.0312 19.9219C21.5458 19.9219 21.1523 20.3154 21.1523 20.8008C21.1523 21.2862 21.5458 21.6797 22.0312 21.6797Z" fill="#0B8149"/>
<path d="M7.96875 21.6797C8.45416 21.6797 8.84766 21.2862 8.84766 20.8008C8.84766 20.3154 8.45416 19.9219 7.96875 19.9219C7.48334 19.9219 7.08984 20.3154 7.08984 20.8008C7.08984 21.2862 7.48334 21.6797 7.96875 21.6797Z" fill="#0B8149"/>
</g>
<defs>
<clipPath id="clip0">
<rect width="30" height="30" fill="white"/>
</clipPath>
</defs>
</svg>
