<svg width="29" height="30" viewBox="0 0 29 30" fill="none" xmlns="http://www.w3.org/2000/svg">
<path d="M21.3379 21.6484H8.05874C7.73182 21.6484 7.44438 21.4316 7.35455 21.1172L7.18384 20.3648L4.53949 8.46484H0.732422C0.327873 8.46484 0 8.13697 0 7.73242C0 7.32787 0.327873 7 0.732422 7H5.12695C5.47028 7 5.76744 7.23842 5.84202 7.57354L6.36559 9.92969H24.2676C24.4974 9.92969 24.7139 10.0376 24.8524 10.2211C24.9907 10.4046 25.0349 10.6423 24.9718 10.8633L22.0421 21.1172C21.9522 21.4316 21.6648 21.6484 21.3379 21.6484Z" fill="white"/>
<path d="M7.32422 25.7754C7.32422 26.9869 8.30994 27.9727 9.52148 27.9727C10.733 27.9727 11.7188 26.9869 11.7188 25.7754C11.7188 24.5638 10.733 23.5781 9.52148 23.5781C8.30994 23.5781 7.32422 24.5638 7.32422 25.7754Z" fill="white"/>
<path d="M17.6758 25.7754C17.6758 26.9869 18.6615 27.9727 19.873 27.9727C21.0846 27.9727 22.0703 26.9869 22.0703 25.7754C22.0703 24.5638 21.0846 23.5781 19.873 23.5781C18.6615 23.5781 17.6758 24.5638 17.6758 25.7754Z" fill="white"/>
</svg>
