<svg width="28" height="28" viewBox="0 0 28 28" fill="none" xmlns="http://www.w3.org/2000/svg">
<path d="M11.8096 4.37744H2.73378C2.43185 4.37744 2.18701 4.62228 2.18701 4.92415V7.11111C2.18701 7.41304 2.43185 7.65782 2.73378 7.65782H11.8097C12.1116 7.65782 12.3564 7.41298 12.3564 7.11111V4.92415C12.3564 4.62228 12.1115 4.37744 11.8096 4.37744ZM11.2629 6.56439H3.28049V5.47092H11.2629V6.56439Z" fill="#0B8149"/>
<path d="M11.8096 9.18872H2.73378C2.43185 9.18872 2.18701 9.43356 2.18701 9.73549C2.18701 10.0374 2.43185 10.2822 2.73378 10.2822H11.8097C12.1116 10.2822 12.3564 10.0374 12.3564 9.73549C12.3564 9.43361 12.1115 9.18872 11.8096 9.18872Z" fill="#0B8149"/>
<path d="M11.8096 11.3755H2.73378C2.43185 11.3755 2.18701 11.6203 2.18701 11.9222C2.18701 12.2241 2.43185 12.469 2.73378 12.469H11.8097C12.1116 12.469 12.3564 12.2241 12.3564 11.9222C12.3564 11.6203 12.1115 11.3755 11.8096 11.3755Z" fill="#0B8149"/>
<path d="M11.8096 14.2188H2.73378C2.43185 14.2188 2.18701 14.4636 2.18701 14.7655V21.3264C2.18701 21.6283 2.43185 21.8731 2.73378 21.8731H11.8097C12.1116 21.8731 12.3564 21.6283 12.3564 21.3264V14.7655C12.3564 14.4635 12.1115 14.2188 11.8096 14.2188ZM3.28049 15.3123H10.8176L7.46304 18.6669L6.42814 17.632C6.21458 17.4186 5.86846 17.4186 5.65486 17.632L3.28049 20.0064V15.3123ZM11.2629 20.7796H4.05377L6.04155 18.7918L7.07646 19.8267C7.29001 20.0402 7.63607 20.0402 7.84968 19.8267L11.2629 16.4135V20.7796Z" fill="#0B8149"/>
<path d="M27.4533 1.09692H16.187C15.2942 1.09692 14.5 1.52671 14.0001 2.19013C13.5001 1.52671 12.7059 1.09692 11.8132 1.09692H0.546711C0.244836 1.09692 0 1.34176 0 1.64369V24.166V26.3564C0 26.6583 0.244836 26.9031 0.546711 26.9031H3.06173C3.36366 26.9031 3.6085 26.6583 3.6085 26.3564C3.6085 26.0544 3.36366 25.8097 3.06173 25.8097H1.09348V24.7127H11.813C12.5277 24.7127 13.137 25.1713 13.3628 25.8097H3.00568C2.70375 25.8097 2.45897 26.0545 2.45897 26.3564C2.45897 26.6582 2.7038 26.9031 3.00568 26.9031H27.4463C27.7482 26.9031 27.9931 26.6583 27.9931 26.3564L28 1.64369C28 1.34176 27.7552 1.09692 27.4533 1.09692ZM13.4498 3.83403V24.1639C12.993 23.8221 12.4263 23.6192 11.813 23.6192H1.09348V2.1904H11.813C12.6821 2.1904 13.3954 2.86858 13.4526 3.72345C13.4511 3.76021 13.4498 3.79696 13.4498 3.83403ZM26.8996 25.8095H14.6372C14.863 25.1713 15.4723 24.7126 16.187 24.7126H26.8996V25.8095ZM26.9065 23.6192H16.187C15.5738 23.6192 15.0071 23.822 14.5502 24.1639V3.83409C14.5502 3.79701 14.5489 3.76021 14.5474 3.72356C14.6046 2.86869 15.3179 2.19046 16.187 2.19046H26.9065V23.6192Z" fill="#0B8149"/>
<path d="M25.2663 14.2188H16.1904C15.8885 14.2188 15.6437 14.4636 15.6437 14.7655C15.6437 15.0674 15.8885 15.3122 16.1904 15.3122H25.2663C25.5683 15.3122 25.8131 15.0674 25.8131 14.7655C25.8131 14.4636 25.5682 14.2188 25.2663 14.2188Z" fill="#0B8149"/>
<path d="M25.2663 16.4058H16.1904C15.8885 16.4058 15.6437 16.6506 15.6437 16.9525C15.6437 17.2543 15.8885 17.4992 16.1904 17.4992H25.2663C25.5683 17.4992 25.8131 17.2543 25.8131 16.9525C25.8131 16.6506 25.5682 16.4058 25.2663 16.4058Z" fill="#0B8149"/>
<path d="M25.2663 18.5925H16.1904C15.8885 18.5925 15.6437 18.8374 15.6437 19.1393C15.6437 19.4412 15.8885 19.686 16.1904 19.686H25.2663C25.5683 19.686 25.8131 19.4412 25.8131 19.1393C25.813 18.8374 25.5682 18.5925 25.2663 18.5925Z" fill="#0B8149"/>
<path d="M25.2663 20.7795H16.1904C15.8885 20.7795 15.6437 21.0244 15.6437 21.3263C15.6437 21.6281 15.8885 21.873 16.1904 21.873H25.2663C25.5683 21.873 25.8131 21.6281 25.8131 21.3263C25.8131 21.0244 25.5682 20.7795 25.2663 20.7795Z" fill="#0B8149"/>
<path fill-rule="evenodd" clip-rule="evenodd" d="M25.2663 4.37744H23.6752H23.2364H16.1904C15.8885 4.37744 15.6437 4.62228 15.6437 4.92415V11.485C15.6437 11.787 15.8885 12.0317 16.1904 12.0317H25.2663C25.5683 12.0317 25.8131 11.7869 25.8131 11.485V4.92421C25.8131 4.62228 25.5683 4.37744 25.2663 4.37744ZM23.6752 5.47092H23.2364H16.7372V10.9383H24.7196V5.47092H23.6752Z" fill="#0B8149"/>
</svg>
