<svg width="28" height="28" viewBox="0 0 28 28" fill="none" xmlns="http://www.w3.org/2000/svg">
<g clip-path="url(#clip0)">
<path d="M9.42932 6.15308C9.42932 6.37959 9.61296 6.56323 9.83948 6.56323H15.6075C15.8341 6.56323 16.0176 6.37959 16.0176 6.15308C16.0176 5.92656 15.8341 5.74292 15.6075 5.74292H9.83948C9.61296 5.74297 9.42932 5.92656 9.42932 6.15308Z" fill="#0B8149" stroke="#0B8149" stroke-width="0.4"/>
<path d="M7.85559 8.41016C7.85559 8.63667 8.03923 8.82031 8.26575 8.82031H17.181C17.4076 8.82031 17.5912 8.63667 17.5912 8.41016C17.5912 8.18364 17.4076 8 17.181 8H8.26575C8.03923 8 7.85559 8.18364 7.85559 8.41016Z" fill="#0B8149" stroke="#0B8149" stroke-width="0.4"/>
<path d="M17.181 10.2568H8.26575C8.03923 10.2568 7.85559 10.4405 7.85559 10.667C7.85559 10.8935 8.03923 11.0771 8.26575 11.0771H17.181C17.4076 11.0771 17.5912 10.8935 17.5912 10.667C17.5912 10.4405 17.4076 10.2568 17.181 10.2568Z" fill="#0B8149" stroke="#0B8149" stroke-width="0.4"/>
<path d="M17.181 12.5139H8.26575C8.03923 12.5139 7.85559 12.6976 7.85559 12.9241C7.85559 13.1506 8.03923 13.3342 8.26575 13.3342H17.181C17.4076 13.3342 17.5912 13.1506 17.5912 12.9241C17.5912 12.6976 17.4076 12.5139 17.181 12.5139Z" fill="#0B8149" stroke="#0B8149" stroke-width="0.4"/>
<path d="M17.181 14.771H8.26575C8.03923 14.771 7.85559 14.9546 7.85559 15.1812C7.85559 15.4077 8.03923 15.5913 8.26575 15.5913H17.181C17.4076 15.5913 17.5912 15.4077 17.5912 15.1812C17.5912 14.9546 17.4076 14.771 17.181 14.771Z" fill="#0B8149" stroke="#0B8149" stroke-width="0.4"/>
<path d="M14.8993 17.0281H8.26575C8.03923 17.0281 7.85559 17.2117 7.85559 17.4382C7.85559 17.6647 8.03923 17.8484 8.26575 17.8484H14.8993C15.1258 17.8484 15.3094 17.6647 15.3094 17.4382C15.3094 17.2117 15.1258 17.0281 14.8993 17.0281Z" fill="#0B8149" stroke="#0B8149" stroke-width="0.4"/>
<path d="M24.716 26.2306L23.6332 23.575C23.6964 23.34 23.701 23.0874 23.7052 22.8524C23.7091 22.6315 23.7132 22.4032 23.7692 22.2681C23.8201 22.1454 23.9734 21.9884 24.1216 21.8366C24.4022 21.5492 24.7513 21.1916 24.7513 20.7064C24.7513 20.2211 24.4022 19.8636 24.1216 19.5763C23.9734 19.4245 23.82 19.2674 23.7692 19.1447C23.7132 19.0096 23.7091 18.7812 23.7052 18.5604C23.6978 18.1459 23.6894 17.6761 23.3593 17.3459C23.0468 17.0334 22.6092 17.0093 22.2118 17.0013V1.19131C22.2118 0.534406 21.6774 0 21.0205 0H4.4263C3.76939 0 3.23499 0.534406 3.23499 1.19131V22.3999C3.23499 23.0568 3.76939 23.5912 4.4263 23.5912H16.3579L15.2815 26.2307C15.1935 26.4468 15.2253 26.6866 15.3666 26.8723C15.508 27.058 15.7311 27.1526 15.9625 27.1251L16.9119 27.0128L17.5121 27.757C17.638 27.913 17.8219 28 18.0176 28C18.0498 28 18.0823 27.9976 18.1149 27.9929C18.3457 27.959 18.5361 27.8097 18.6242 27.5937L19.539 25.3503C19.6787 25.4166 19.8309 25.4589 19.9988 25.4589C20.1666 25.4589 20.3189 25.4165 20.4585 25.3502L20.5187 25.4978L20.5187 25.4979C20.6042 25.7075 20.8436 25.8082 21.0533 25.7227C21.263 25.6372 21.3638 25.3979 21.2782 25.1881L21.2782 25.188L21.131 24.8271C21.2822 24.6795 21.4383 24.5275 21.5605 24.4768C21.6956 24.4208 21.9239 24.4167 22.1448 24.4128C22.4371 24.4076 22.7568 24.4013 23.0358 24.2826L23.8491 26.277L23.0898 26.1872C22.8656 26.1606 22.6471 26.2498 22.5054 26.4255L22.0256 27.0205L22.0066 26.9741C22.0066 26.9741 22.0066 26.974 22.0066 26.9739C21.921 26.7643 21.6817 26.6637 21.472 26.7491C21.2622 26.8347 21.1615 27.074 21.247 27.2838L21.3734 27.5937C21.4615 27.8097 21.6519 27.959 21.8828 27.9929C21.9154 27.9976 21.9478 28 21.98 28C22.1757 28 22.3596 27.9129 22.4855 27.7569L23.0857 27.0127L24.0352 27.125C24.2668 27.1523 24.4897 27.058 24.631 26.8723C24.7723 26.6866 24.8041 26.4467 24.716 26.2306ZM4.4263 22.7708C4.22171 22.7708 4.0553 22.6044 4.0553 22.3998V1.19131C4.0553 0.986727 4.22171 0.820312 4.4263 0.820312H21.0205C21.225 0.820312 21.3915 0.986727 21.3915 1.19131V16.8259C21.3073 16.7574 21.2173 16.67 21.1289 16.5837C20.8415 16.3032 20.484 15.954 19.9988 15.954C19.9754 15.954 19.9525 15.9556 19.9297 15.9571V5.26892C19.9297 4.8621 19.6554 4.50975 19.2627 4.41213C18.2935 4.17112 18.007 3.36952 17.9373 2.73941C17.888 2.29277 17.5103 1.95601 17.059 1.95601H9.46072C9.2342 1.95601 9.05056 2.13965 9.05056 2.36616C9.05056 2.59268 9.2342 2.77632 9.46072 2.77632H17.059C17.091 2.77632 17.1187 2.79973 17.122 2.82959C17.2589 4.06826 17.9671 4.93522 19.0648 5.20816C19.0906 5.21462 19.1093 5.2401 19.1093 5.26887V16.3572C19.0237 16.4324 18.9436 16.5103 18.8686 16.5835C18.7168 16.7318 18.5597 16.8851 18.4371 16.936C18.302 16.992 18.0736 16.996 17.8528 16.9999C17.4383 17.0073 16.9684 17.0157 16.6382 17.3458C16.3081 17.676 16.2998 18.1458 16.2924 18.5603C16.2885 18.7812 16.2844 19.0095 16.2284 19.1446C16.1775 19.2674 16.0242 19.4244 15.8759 19.5763C15.5955 19.8636 15.2463 20.2212 15.2463 20.7063C15.2463 20.7432 15.249 20.7792 15.2528 20.8146H8.3877C8.3557 20.8146 8.32803 20.7912 8.32475 20.7613C8.18781 19.5227 7.47967 18.6557 6.38192 18.3828C6.35611 18.3764 6.33741 18.3509 6.33741 18.3221V5.26892C6.33741 5.24016 6.35611 5.21462 6.38192 5.20822C7.47967 4.93527 8.18776 4.06831 8.32475 2.82964C8.32809 2.79978 8.3557 2.77638 8.3877 2.77638H9.76156C9.98807 2.77638 10.1717 2.59273 10.1717 2.36622C10.1717 2.1397 9.98807 1.95606 9.76156 1.95606H8.3877C7.93636 1.95606 7.5588 2.29288 7.50942 2.73952C7.43974 3.36952 7.15324 4.17112 6.18401 4.41219C5.79135 4.5098 5.5171 4.86216 5.5171 5.26898V18.3222C5.5171 18.729 5.79135 19.0814 6.18401 19.179C7.15329 19.42 7.43974 20.2216 7.50942 20.8516C7.5588 21.2983 7.93642 21.6351 8.3877 21.6351H15.6846C15.7488 21.706 15.814 21.7731 15.8759 21.8366C16.0242 21.9884 16.1775 22.1454 16.2284 22.2682C16.2775 22.3867 16.2867 22.5769 16.2909 22.7708H4.4263ZM17.9721 27.0205L17.4922 26.4255C17.3669 26.2702 17.1817 26.1826 16.9856 26.1826C16.9597 26.1826 16.9337 26.1842 16.9076 26.1872L16.1485 26.277L16.9618 24.2826C17.2407 24.4013 17.5604 24.4076 17.8527 24.4128C18.0736 24.4167 18.302 24.4208 18.437 24.4768C18.5591 24.5274 18.7153 24.6795 18.8664 24.8271L17.9721 27.0205ZM23.0115 21.954C22.8958 22.2329 22.8903 22.5404 22.885 22.8379C22.8804 23.0972 22.8751 23.391 22.7793 23.4869C22.6833 23.5828 22.3894 23.5881 22.1302 23.5927C21.8328 23.598 21.5252 23.6035 21.2463 23.7191C20.9777 23.8305 20.7633 24.0399 20.5558 24.2424C20.3656 24.4281 20.1499 24.6386 19.9988 24.6386C19.8477 24.6386 19.632 24.4281 19.4417 24.2424C19.2343 24.0399 19.0198 23.8305 18.7512 23.7191C18.4723 23.6035 18.1647 23.598 17.8673 23.5927C17.6081 23.5881 17.3142 23.5828 17.2183 23.4869C17.1224 23.391 17.1171 23.0972 17.1125 22.8379C17.1072 22.5405 17.1018 22.2329 16.986 21.954C16.8747 21.6855 16.6654 21.471 16.4629 21.2635C16.2771 21.0733 16.0666 20.8576 16.0666 20.7064C16.0666 20.5553 16.2771 20.3396 16.4629 20.1493C16.6654 19.942 16.8747 19.7275 16.986 19.4589C17.1017 19.1799 17.1072 18.8724 17.1125 18.575C17.1171 18.3157 17.1224 18.0218 17.2183 17.926C17.3142 17.83 17.6081 17.8248 17.8674 17.8202C18.1647 17.8149 18.4723 17.8094 18.7513 17.6938C19.0198 17.5824 19.2343 17.373 19.4417 17.1706C19.6319 16.9848 19.8476 16.7742 19.9988 16.7742C20.1499 16.7742 20.3656 16.9848 20.5558 17.1705C20.7633 17.373 20.9777 17.5824 21.2463 17.6938C21.5253 17.8094 21.8328 17.8149 22.1302 17.8202C22.3894 17.8248 22.6833 17.8301 22.7792 17.926C22.8751 18.0218 22.8804 18.3157 22.885 18.575C22.8903 18.8724 22.8957 19.18 23.0115 19.4589C23.1229 19.7275 23.3322 19.942 23.5347 20.1493C23.7204 20.3396 23.931 20.5552 23.931 20.7064C23.931 20.8576 23.7204 21.0733 23.5347 21.2635C23.3322 21.4709 23.1229 21.6853 23.0115 21.954Z" fill="#0B8149"/>
<path d="M21.0533 25.7227C20.8436 25.8082 20.6042 25.7075 20.5187 25.4979L21.247 27.2838C21.1615 27.074 21.2622 26.8347 21.472 26.7491C21.6817 26.6637 21.921 26.7643 22.0066 26.9739L21.2782 25.1881C21.3638 25.3979 21.263 25.6372 21.0533 25.7227Z" fill="#0B8149"/>
<path d="M22.0066 26.9741L22.0256 27.0205L22.5054 26.4255C22.6471 26.2498 22.8656 26.1606 23.0898 26.1872L23.8491 26.277L23.0358 24.2826C22.7568 24.4013 22.4371 24.4076 22.1448 24.4128C21.9239 24.4167 21.6956 24.4208 21.5605 24.4768C21.4383 24.5275 21.2822 24.6795 21.131 24.8271L21.2782 25.188L21.2782 25.1881M22.0066 26.9741L22.0066 26.9739M22.0066 26.9741C22.0066 26.9741 22.0066 26.974 22.0066 26.9739M21.247 27.2838C21.1615 27.074 21.2622 26.8347 21.472 26.7491C21.6817 26.6637 21.921 26.7643 22.0066 26.9739M21.247 27.2838L21.3734 27.5937C21.4615 27.8097 21.6519 27.959 21.8828 27.9929C21.9154 27.9976 21.9478 28 21.98 28C22.1757 28 22.3596 27.9129 22.4855 27.7569L23.0857 27.0127L24.0352 27.125C24.2668 27.1523 24.4897 27.058 24.631 26.8723C24.7723 26.6866 24.8041 26.4467 24.716 26.2306L23.6332 23.575C23.6964 23.34 23.701 23.0874 23.7052 22.8524C23.7091 22.6315 23.7132 22.4032 23.7692 22.2681C23.8201 22.1454 23.9734 21.9884 24.1216 21.8366C24.4022 21.5492 24.7513 21.1916 24.7513 20.7064C24.7513 20.2211 24.4022 19.8636 24.1216 19.5763C23.9734 19.4245 23.82 19.2674 23.7692 19.1447C23.7132 19.0096 23.7091 18.7812 23.7052 18.5604C23.6978 18.1459 23.6894 17.6761 23.3593 17.3459C23.0468 17.0334 22.6092 17.0093 22.2118 17.0013V1.19131C22.2118 0.534406 21.6774 0 21.0205 0H4.4263C3.76939 0 3.23499 0.534406 3.23499 1.19131V22.3999C3.23499 23.0568 3.76939 23.5912 4.4263 23.5912H16.3579L15.2815 26.2307C15.1935 26.4468 15.2253 26.6866 15.3666 26.8723C15.508 27.058 15.7311 27.1526 15.9625 27.1251L16.9119 27.0128L17.5121 27.757C17.638 27.913 17.8219 28 18.0176 28C18.0498 28 18.0823 27.9976 18.1149 27.9929C18.3457 27.959 18.5361 27.8097 18.6242 27.5937L19.539 25.3503C19.6787 25.4166 19.8309 25.4589 19.9988 25.4589C20.1666 25.4589 20.3189 25.4165 20.4585 25.3502L20.5187 25.4978L20.5187 25.4979M21.247 27.2838L20.5187 25.4979M20.5187 25.4979C20.6042 25.7075 20.8436 25.8082 21.0533 25.7227C21.263 25.6372 21.3638 25.3979 21.2782 25.1881M22.0066 26.9739L21.2782 25.1881M4.4263 22.7708C4.22171 22.7708 4.0553 22.6044 4.0553 22.3998V1.19131C4.0553 0.986727 4.22171 0.820312 4.4263 0.820312H21.0205C21.225 0.820312 21.3915 0.986727 21.3915 1.19131V16.8259C21.3073 16.7574 21.2173 16.67 21.1289 16.5837C20.8415 16.3032 20.484 15.954 19.9988 15.954C19.9754 15.954 19.9525 15.9556 19.9297 15.9571V5.26892C19.9297 4.8621 19.6554 4.50975 19.2627 4.41213C18.2935 4.17113 18.007 3.36952 17.9373 2.73941C17.888 2.29277 17.5103 1.95601 17.059 1.95601H9.46072C9.2342 1.95601 9.05056 2.13965 9.05056 2.36616C9.05056 2.59268 9.2342 2.77632 9.46072 2.77632H17.059C17.091 2.77632 17.1187 2.79973 17.122 2.82959C17.2589 4.06826 17.9671 4.93522 19.0648 5.20816C19.0906 5.21462 19.1093 5.2401 19.1093 5.26887V16.3572C19.0237 16.4324 18.9436 16.5103 18.8686 16.5835C18.7168 16.7318 18.5597 16.8851 18.4371 16.936C18.302 16.992 18.0736 16.996 17.8528 16.9999C17.4383 17.0073 16.9684 17.0157 16.6382 17.3458C16.3081 17.676 16.2998 18.1458 16.2924 18.5603C16.2885 18.7812 16.2844 19.0095 16.2284 19.1446C16.1775 19.2674 16.0242 19.4244 15.8759 19.5763C15.5955 19.8636 15.2463 20.2212 15.2463 20.7063C15.2463 20.7432 15.249 20.7792 15.2528 20.8146H8.3877C8.3557 20.8146 8.32803 20.7912 8.32475 20.7613C8.18781 19.5227 7.47967 18.6557 6.38192 18.3828C6.35611 18.3764 6.33741 18.3509 6.33741 18.3221V5.26892C6.33741 5.24016 6.35611 5.21462 6.38192 5.20822C7.47967 4.93527 8.18776 4.06831 8.32475 2.82964C8.32809 2.79978 8.3557 2.77638 8.3877 2.77638H9.76156C9.98807 2.77638 10.1717 2.59273 10.1717 2.36622C10.1717 2.1397 9.98807 1.95606 9.76156 1.95606H8.3877C7.93636 1.95606 7.5588 2.29288 7.50942 2.73952C7.43974 3.36952 7.15324 4.17113 6.18401 4.41219C5.79135 4.5098 5.5171 4.86216 5.5171 5.26898V18.3222C5.5171 18.729 5.79135 19.0814 6.18401 19.179C7.15329 19.42 7.43974 20.2216 7.50942 20.8516C7.5588 21.2983 7.93641 21.6351 8.3877 21.6351H15.6846C15.7488 21.706 15.814 21.7731 15.8759 21.8366C16.0242 21.9884 16.1775 22.1454 16.2284 22.2682C16.2775 22.3867 16.2867 22.5769 16.2909 22.7708H4.4263ZM17.9721 27.0205L17.4922 26.4255C17.3669 26.2702 17.1817 26.1826 16.9856 26.1826C16.9597 26.1826 16.9337 26.1842 16.9076 26.1872L16.1485 26.277L16.9618 24.2826C17.2407 24.4013 17.5604 24.4076 17.8527 24.4128C18.0736 24.4167 18.302 24.4208 18.437 24.4768C18.5591 24.5274 18.7153 24.6795 18.8664 24.8271L17.9721 27.0205ZM23.0115 21.954C22.8958 22.2329 22.8903 22.5404 22.885 22.8379C22.8804 23.0972 22.8751 23.391 22.7793 23.4869C22.6833 23.5828 22.3894 23.5881 22.1302 23.5927C21.8328 23.598 21.5252 23.6035 21.2463 23.7191C20.9777 23.8305 20.7633 24.0399 20.5558 24.2424C20.3656 24.4281 20.1499 24.6386 19.9988 24.6386C19.8477 24.6386 19.632 24.4281 19.4417 24.2424C19.2343 24.0399 19.0198 23.8305 18.7512 23.7191C18.4723 23.6035 18.1647 23.598 17.8673 23.5927C17.6081 23.5881 17.3142 23.5828 17.2183 23.4869C17.1224 23.391 17.1171 23.0972 17.1125 22.8379C17.1072 22.5405 17.1018 22.2329 16.986 21.954C16.8747 21.6855 16.6654 21.471 16.4629 21.2635C16.2771 21.0733 16.0666 20.8576 16.0666 20.7064C16.0666 20.5553 16.2771 20.3396 16.4629 20.1493C16.6654 19.942 16.8747 19.7275 16.986 19.4589C17.1017 19.1799 17.1072 18.8724 17.1125 18.575C17.1171 18.3157 17.1224 18.0218 17.2183 17.926C17.3142 17.83 17.6081 17.8248 17.8674 17.8202C18.1647 17.8149 18.4723 17.8094 18.7513 17.6938C19.0198 17.5824 19.2343 17.373 19.4417 17.1706C19.6319 16.9848 19.8476 16.7742 19.9988 16.7742C20.1499 16.7742 20.3656 16.9848 20.5558 17.1705C20.7633 17.373 20.9777 17.5824 21.2463 17.6938C21.5253 17.8094 21.8328 17.8149 22.1302 17.8202C22.3894 17.8248 22.6833 17.8301 22.7792 17.926C22.8751 18.0218 22.8804 18.3157 22.885 18.575C22.8903 18.8724 22.8957 19.18 23.0115 19.4589C23.1229 19.7275 23.3322 19.942 23.5347 20.1493C23.7204 20.3396 23.931 20.5552 23.931 20.7064C23.931 20.8576 23.7204 21.0733 23.5347 21.2635C23.3322 21.4709 23.1229 21.6853 23.0115 21.954Z" stroke="#0B8149" stroke-width="0.4"/>
<path d="M19.9989 18.3347C18.6912 18.3347 17.6273 19.3986 17.6273 20.7063C17.6273 22.014 18.6912 23.0779 19.9989 23.0779C21.3066 23.0779 22.3705 22.014 22.3705 20.7063C22.3705 19.3986 21.3065 18.3347 19.9989 18.3347ZM19.9989 22.2576C19.1435 22.2576 18.4476 21.5617 18.4476 20.7063C18.4476 19.8509 19.1435 19.155 19.9989 19.155C20.8543 19.155 21.5502 19.8509 21.5502 20.7063C21.5502 21.5617 20.8543 22.2576 19.9989 22.2576Z" fill="#0B8149" stroke="#0B8149" stroke-width="0.4"/>
</g>
<defs>
<clipPath id="clip0">
<rect width="28" height="28" fill="white"/>
</clipPath>
</defs>
</svg>
