<svg width="15" height="16" viewBox="0 0 15 16" fill="none" xmlns="http://www.w3.org/2000/svg">
<g clip-path="url(#clip0)">
<path d="M12.4219 2.375H9.84375V1.90625C9.84375 1.13085 9.2129 0.5 8.4375 0.5H6.5625C5.7871 0.5 5.15625 1.13085 5.15625 1.90625V2.375H2.57812C1.93195 2.375 1.40625 2.9007 1.40625 3.54688V5.1875C1.40625 5.44637 1.61613 5.65625 1.875 5.65625H2.13117L2.53614 14.1606C2.57191 14.9117 3.18891 15.5 3.94078 15.5H11.0592C11.8111 15.5 12.4281 14.9117 12.4639 14.1606L12.8688 5.65625H13.125C13.3839 5.65625 13.5938 5.44637 13.5938 5.1875V3.54688C13.5938 2.9007 13.068 2.375 12.4219 2.375ZM6.09375 1.90625C6.09375 1.64779 6.30404 1.4375 6.5625 1.4375H8.4375C8.69596 1.4375 8.90625 1.64779 8.90625 1.90625V2.375H6.09375V1.90625ZM2.34375 3.54688C2.34375 3.41765 2.4489 3.3125 2.57812 3.3125H12.4219C12.5511 3.3125 12.6562 3.41765 12.6562 3.54688V4.71875C12.5118 4.71875 2.94237 4.71875 2.34375 4.71875V3.54688ZM11.5274 14.116C11.5155 14.3664 11.3098 14.5625 11.0592 14.5625H3.94078C3.69015 14.5625 3.48448 14.3664 3.47259 14.116L3.06973 5.65625H11.9303L11.5274 14.116Z" fill="#232323"/>
<path d="M7.5 13.625C7.75887 13.625 7.96875 13.4151 7.96875 13.1562V7.0625C7.96875 6.80363 7.75887 6.59375 7.5 6.59375C7.24113 6.59375 7.03125 6.80363 7.03125 7.0625V13.1562C7.03125 13.4151 7.2411 13.625 7.5 13.625Z" fill="#232323"/>
<path d="M9.84375 13.625C10.1026 13.625 10.3125 13.4151 10.3125 13.1562V7.0625C10.3125 6.80363 10.1026 6.59375 9.84375 6.59375C9.58488 6.59375 9.375 6.80363 9.375 7.0625V13.1562C9.375 13.4151 9.58485 13.625 9.84375 13.625Z" fill="#232323"/>
<path d="M5.15625 13.625C5.41512 13.625 5.625 13.4151 5.625 13.1562V7.0625C5.625 6.80363 5.41512 6.59375 5.15625 6.59375C4.89738 6.59375 4.6875 6.80363 4.6875 7.0625V13.1562C4.6875 13.4151 4.89735 13.625 5.15625 13.625Z" fill="#232323"/>
</g>
<defs>
<clipPath id="clip0">
<rect width="15" height="15" fill="white" transform="translate(0 0.5)"/>
</clipPath>
</defs>
</svg>
