<svg width="18" height="18" viewBox="0 0 18 18" fill="none" xmlns="http://www.w3.org/2000/svg">
<path d="M17.9479 0.339411C17.8579 0.132182 17.6656 0 17.4545 0H0.545573C0.334412 0 0.142236 0.132182 0.0521126 0.339411C-0.0379381 0.546641 -0.00971544 0.791591 0.124633 0.96836L6.62465 9.52143V17.4081C6.62465 17.6129 6.7222 17.8031 6.88251 17.9111C6.97038 17.9702 7.07011 18 7.17019 18C7.2529 18 7.33589 17.9796 7.41242 17.9384L11.0645 15.9747C11.25 15.8749 11.3674 15.6698 11.3677 15.4451L11.3749 9.52166L17.8752 0.968281C18.0097 0.791591 18.038 0.546562 17.9479 0.339411ZM10.4087 8.93233C10.3284 9.03808 10.2843 9.17089 10.2841 9.30804L10.2772 15.0769L7.71581 16.4542V9.30883C7.71581 9.17144 7.6718 9.03831 7.59121 8.93233L1.70241 1.18364H16.2975L10.4087 8.93233Z" fill="#232323"/>
</svg>
