<svg width="18" height="20" viewBox="0 0 18 20" fill="none" xmlns="http://www.w3.org/2000/svg">
<path d="M9.95637 19.9439C13.9684 19.4945 17.1837 16.2874 17.6412 12.2754C18.2418 7.02957 14.1645 2.56409 9.05347 2.5069V0.153637C9.05347 0.0229001 8.89005 -0.0465537 8.77974 0.0351567L3.93431 3.59365C3.8526 3.65493 3.8526 3.77341 3.93431 3.83469L8.77974 7.39318C8.89005 7.47489 9.05347 7.40135 9.05347 7.2747V4.92552C12.6446 4.98272 15.5209 8.03869 15.2757 11.6911C15.0674 14.8329 12.5057 17.3823 9.36397 17.5825C6.03427 17.7949 3.203 15.4171 2.69639 12.2713C2.60243 11.6871 2.09174 11.2622 1.50342 11.2622C0.77211 11.2622 0.200137 11.9118 0.314531 12.6349C1.02541 17.1167 5.16405 20.4791 9.95637 19.9439Z" fill="#232323"/>
</svg>
