<svg width="20" height="20" viewBox="0 0 20 20" fill="none" xmlns="http://www.w3.org/2000/svg">
<g clip-path="url(#clip0)">
<path d="M10.0001 20C9.56352 20 9.17258 19.7736 8.95438 19.3943C8.95208 19.3903 8.94985 19.3863 8.94762 19.3823L3.98817 10.3047C2.80434 8.13788 2.83829 5.56597 4.07899 3.42487C5.29278 1.33018 7.44872 0.0504578 9.84614 0.00155151C9.94856 -0.000557861 10.0515 -0.000557861 10.1539 0.00155151C12.5513 0.0504578 14.7073 1.33018 15.9211 3.42487C17.1618 5.56597 17.1957 8.13784 16.0119 10.3047L11.0525 19.3823C11.0502 19.3863 11.048 19.3903 11.0457 19.3943C10.8275 19.7735 10.4366 20 10.0001 20ZM10 1.24999C9.95712 1.24999 9.9143 1.25042 9.87157 1.25128C7.91458 1.2912 6.1534 2.33804 5.16047 4.05159C4.14067 5.81155 4.11247 7.92511 5.08508 9.70534L10 18.7014L14.915 9.70538C15.8876 7.92511 15.8594 5.81155 14.8395 4.05159C13.8466 2.33808 12.0854 1.2912 10.1284 1.25128C10.0858 1.25042 10.043 1.24999 10 1.24999Z" fill="#232323"/>
<path d="M10 9.0625C8.44918 9.0625 7.1875 7.80082 7.1875 6.25C7.1875 4.69918 8.44918 3.4375 10 3.4375C11.5508 3.4375 12.8125 4.69918 12.8125 6.25C12.8125 7.80082 11.5509 9.0625 10 9.0625ZM10 4.6875C9.13844 4.6875 8.4375 5.38844 8.4375 6.25C8.4375 7.11156 9.13844 7.8125 10 7.8125C10.8616 7.8125 11.5625 7.11156 11.5625 6.25C11.5625 5.38844 10.8616 4.6875 10 4.6875Z" fill="#232323"/>
</g>
<defs>
<clipPath id="clip0">
<rect width="20" height="20" fill="white"/>
</clipPath>
</defs>
</svg>
