<svg width="20" height="20" viewBox="0 0 20 20" fill="none" xmlns="http://www.w3.org/2000/svg">
<g clip-path="url(#clip0)">
<path d="M18.1245 2.5H1.87452C0.840579 2.5 -0.000488281 3.34107 -0.000488281 4.37501V15.625C-0.000488281 16.659 0.840579 17.5 1.87452 17.5H18.1245C19.1584 17.5 19.9995 16.659 19.9995 15.625V4.37501C19.9995 3.34107 19.1584 2.5 18.1245 2.5ZM18.1245 3.75C18.2094 3.75 18.2902 3.76761 18.3641 3.79838L9.99951 11.048L1.63493 3.79838C1.70878 3.76766 1.78957 3.75 1.87448 3.75H18.1245ZM18.1245 16.25H1.87452C1.52968 16.25 1.24951 15.9699 1.24951 15.625V5.11902L9.58996 12.3474C9.70777 12.4493 9.85364 12.5 9.99951 12.5C10.1454 12.5 10.2913 12.4494 10.4091 12.3474L18.7495 5.11902V15.625C18.7495 15.9699 18.4693 16.25 18.1245 16.25Z" fill="#232323"/>
</g>
<defs>
<clipPath id="clip0">
<rect width="20" height="20" fill="white" transform="translate(-0.000488281)"/>
</clipPath>
</defs>
</svg>
