<svg width="19" height="19" viewBox="0 0 19 19" fill="none" xmlns="http://www.w3.org/2000/svg">
<path d="M18.7678 17.6488L13.3648 12.2457C14.4114 10.953 15.0415 9.31027 15.0415 7.52114C15.0415 3.37443 11.6674 0.000366211 7.52074 0.000366211C3.37403 0.000366211 0 3.37439 0 7.5211C0 11.6678 3.37406 15.0419 7.52077 15.0419C9.30991 15.0419 10.9526 14.4117 12.2454 13.3651L17.6485 18.7682C17.8028 18.9226 18.0055 19.0002 18.2082 19.0002C18.4109 19.0002 18.6135 18.9226 18.7679 18.7682C19.0774 18.4587 19.0774 17.9583 18.7678 17.6488ZM7.52077 13.4585C4.24646 13.4585 1.58333 10.7954 1.58333 7.5211C1.58333 4.24679 4.24646 1.58366 7.52077 1.58366C10.7951 1.58366 13.4582 4.24679 13.4582 7.5211C13.4582 10.7954 10.795 13.4585 7.52077 13.4585Z" fill="#232323"/>
</svg>
