<svg width="22" height="12" viewBox="0 0 22 12" fill="none" xmlns="http://www.w3.org/2000/svg">
<path d="M11 -0.000488281C7.15358 -0.000488281 3.66547 2.10391 1.0916 5.52201C0.881575 5.80205 0.881575 6.19327 1.0916 6.47331C3.66547 9.89553 7.15358 11.9999 11 11.9999C14.8464 11.9999 18.3345 9.89553 20.9083 6.47743C21.1184 6.19739 21.1184 5.80616 20.9083 5.52613C18.3345 2.10391 14.8464 -0.000488281 11 -0.000488281ZM11.2759 10.225C8.72261 10.3856 6.6141 8.2812 6.77471 5.7238C6.90649 3.61528 8.61554 1.90623 10.7241 1.77445C13.2773 1.61384 15.3858 3.71824 15.2252 6.27564C15.0893 8.38003 13.3803 10.0891 11.2759 10.225ZM11.1482 8.27296C9.77275 8.35944 8.63613 7.22694 8.72673 5.85146C8.79674 4.71484 9.71922 3.79649 10.8558 3.72236C12.2313 3.63588 13.3679 4.76838 13.2773 6.14386C13.2032 7.2846 12.2807 8.20295 11.1482 8.27296Z" fill="#A6A6A6"/>
</svg>
